<svg height="24" viewBox="0 0 25 24" width="25" xmlns="http://www.w3.org/2000/svg" class="c-socialIcon --appleLogo">
  <path d="m17.05 5.79.317.008c.785.06 3.05.296 4.5 2.389-.121.09-2.688 1.534-2.658 4.572.03 3.628 3.26 4.838 3.291 4.868-.03.089-.513 1.711-1.69 3.392-1.027 1.475-2.084 2.92-3.775 2.95-1.631.03-2.175-.944-4.046-.944-1.873 0-2.477.914-4.017.973-1.63.059-2.868-1.564-3.895-3.038-2.114-2.98-3.714-8.407-1.54-12.065 1.057-1.83 2.99-2.979 5.073-3.009 1.6-.028 3.08 1.033 4.047 1.033.966 0 2.686-1.238 4.71-1.12zm.333-5.79c.151 1.42-.424 2.81-1.272 3.846-.878 1.007-2.27 1.804-3.664 1.686-.181-1.36.515-2.809 1.303-3.696.877-1.037 2.39-1.776 3.633-1.836z" fill="#fff" fill-rule="evenodd"></path>
</svg>