<svg width="17" height="20" viewBox="0 0 17 20" fill="none" xmlns="http://www.w3.org/2000/svg">
<path d="M16.1204 16.7181L15.4993 6.21726C15.473 5.66966 15.0077 5.22692 14.4635 5.22692H12.1067V4.1063C12.1067 1.99533 10.3972 0.276306 8.30035 0.276306C6.20244 0.276306 4.49404 1.99643 4.49404 4.1063V5.22692H2.13717C1.56769 5.22692 1.12768 5.66966 1.10137 6.21726L0.686638 16.7434C0.660339 17.4467 0.919289 18.1246 1.41191 18.6457C1.9035 19.1669 2.57718 19.4539 3.27614 19.4539H13.5047C14.2299 19.4539 14.9026 19.1669 15.3952 18.6457C15.8878 18.1256 16.172 17.4479 16.1204 16.7181ZM5.55496 4.1075C5.55496 2.5706 6.79813 1.31975 8.32547 1.31975C9.85286 1.31975 11.096 2.57065 11.096 4.1075V5.22812H5.55496V4.1075ZM14.6708 17.9428C14.3855 18.2552 13.9718 18.4374 13.5318 18.4374L3.30224 18.4385C2.88751 18.4385 2.47381 18.2563 2.18855 17.9692C1.90329 17.6568 1.74854 17.2659 1.74854 16.8232L2.16328 6.29702H4.52014V9.33937H5.55594L5.55493 6.29598H11.0708V9.33833H12.1066V6.29598H14.4635L15.0846 16.7969C15.1109 17.2142 14.9813 17.6303 14.6708 17.9428Z" fill="black"/>
<path fill-rule="evenodd" clip-rule="evenodd" d="M0.825325 6.20383C0.858477 5.51381 1.41539 4.95061 2.13694 4.95061H4.21767V4.10612C4.21767 1.84542 6.04804 0 8.30011 0C10.551 0 12.3826 1.84422 12.3826 4.10612V4.95061H14.4633C15.1547 4.95061 15.7406 5.5086 15.7748 6.20221L15.7749 6.20384L16.3956 16.6985L16.3957 16.7002C16.4529 17.5165 16.1337 18.2671 15.5957 18.8352C15.0501 19.4124 14.3045 19.7298 13.5044 19.7298H3.27591C2.50087 19.7298 1.75454 19.4114 1.21081 18.835C0.668632 18.2614 0.381333 17.512 0.410465 16.7329L0.825325 6.20383ZM1.41167 18.6456C1.90326 19.1667 2.57695 19.4537 3.27591 19.4537H13.5044C14.2297 19.4537 14.9024 19.1667 15.395 18.6456C15.8876 18.1254 16.1717 17.4477 16.1202 16.718L15.4991 6.21709C15.4728 5.66949 15.0075 5.22674 14.4633 5.22674H12.1064V4.10612C12.1064 1.99516 10.3969 0.276131 8.30011 0.276131C6.2022 0.276131 4.4938 1.99625 4.4938 4.10612V5.22674H2.13694C1.56746 5.22674 1.39364 5.65624 1.36733 6.20383L0.686403 16.7432C0.660104 17.4465 0.919054 18.1244 1.41167 18.6456ZM2.18832 17.9691C1.90306 17.6566 1.74831 17.2657 1.74831 16.823L2.16304 6.29684H4.5199V9.3392H5.55571L5.55469 6.2958H11.0706V9.33815H12.1064V6.2958H14.4633L15.0843 16.7967C15.1106 17.214 14.9811 17.6301 14.6706 17.9426C14.3853 18.2551 13.9716 18.4373 13.5316 18.4373L3.30201 18.4383C2.88727 18.4383 2.47358 18.2561 2.18832 17.9691ZM8.32523 1.59571C6.952 1.59571 5.83085 2.72132 5.83085 4.10732V4.95181H10.8196V4.10732C10.8196 2.72136 9.69851 1.59571 8.32523 1.59571ZM8.32523 1.31957C6.79789 1.31957 5.55472 2.57043 5.55472 4.10732V5.22794H11.0957V4.10732C11.0957 2.57048 9.85262 1.31957 8.32523 1.31957Z" fill="black"/>
</svg>
