<svg width="17" height="22" viewBox="0 0 17 22" fill="none" xmlns="http://www.w3.org/2000/svg">
<path d="M14.8305 6.01893H12.5166V4.99424C12.5166 2.71404 10.6701 0.856014 8.40306 0.856014C6.13479 0.856014 4.28953 2.71524 4.28953 4.99424V6.01893H1.97558C1.30238 6.01893 0.782545 6.54347 0.75154 7.18882H0.751534L0.751485 7.19006L0.318964 18.1676L0.318953 18.1679C0.29005 18.9409 0.574887 19.6851 1.11447 20.256C1.65433 20.8283 2.39479 21.144 3.16339 21.144H13.8306C14.6259 21.144 15.3655 20.8288 15.9068 20.2561C16.4443 19.6886 16.7589 18.9438 16.7021 18.1376C16.7021 18.1373 16.7021 18.1371 16.7021 18.1368L16.0546 7.18882C16.0546 7.18856 16.0546 7.1883 16.0545 7.18804C16.023 6.54079 15.4749 6.01893 14.8305 6.01893ZM14.9446 19.3226L14.9445 19.3225L14.9404 19.327C14.6708 19.6223 14.2782 19.796 13.8589 19.796L3.1906 19.797C2.79929 19.797 2.40515 19.6246 2.13343 19.3523C1.86217 19.0541 1.71491 18.683 1.71427 18.2593L2.14123 7.4229H4.31675V10.4517V10.5957H4.46074H5.54096H5.68499L5.68495 10.4517L5.68394 7.42181H11.1484V10.4506V10.5946H11.2924H12.3726H12.5166V10.4506V7.42181H14.6948L15.3345 18.2375L15.3345 18.2381C15.3597 18.6376 15.2358 19.0296 14.9446 19.3226ZM5.68392 4.99549C5.68392 3.47136 6.91678 2.23218 8.42926 2.23218C9.94179 2.23218 11.1746 3.47142 11.1746 4.99549V6.02018H5.68392V4.99549Z" fill="black" stroke="black" stroke-width="0.287973"/>
</svg>
