<svg width="25" height="25" viewBox="0 0 25 25" fill="none" xmlns="http://www.w3.org/2000/svg">
<circle cx="12.6412" cy="12.6413" r="11.6416" stroke="#AD782A" stroke-width="1.05833"/>
<path d="M14.2293 12.4245C13.7602 12.8469 13.2204 13.2694 12.6806 13.5974C12.3287 13.832 12.0007 14.0199 11.6488 14.3012C11.3904 14.512 11.1796 14.7237 10.8983 14.9344C10.2651 15.5448 9.67856 16.2486 9.27994 16.9991C8.76401 17.9375 8.36539 18.9693 8.29482 20.0728C8.29482 20.1195 8.31865 20.1662 8.271 20.1901C8.34156 20.2368 8.34156 20.2368 8.38829 20.2606C11.0155 21.8093 14.957 19.9793 17.2323 16.2258C19.1558 12.9415 19.2264 9.30522 17.5375 7.33508C17.2562 8.39076 16.787 9.37588 16.1766 10.2915C15.6607 11.064 14.9807 11.7916 14.2293 12.4248L14.2293 12.4245Z" fill="#AD782A"/>
<path d="M7.47435 19.4863C7.75568 18.4307 8.20197 17.3988 8.78846 16.5072C9.28149 15.7329 9.84414 14.9823 10.4774 14.3253C10.8531 13.9267 11.2279 13.528 11.6742 13.2229C11.9326 13.0121 12.2139 12.8948 12.4953 12.6831C13.0818 12.2845 13.6682 11.862 14.208 11.3223C14.888 10.7119 15.4983 9.93852 15.9436 9.11744C16.1544 8.69498 16.3423 8.29635 16.4834 7.80333C16.5301 7.59256 16.6007 7.35797 16.6474 7.09954C16.6713 6.98224 16.6942 6.84111 16.6713 6.72381C16.6713 6.72381 16.6951 6.60651 16.6951 6.55978L16.6245 6.51304C13.9973 4.96433 10.0558 6.79437 7.78049 10.5479C5.78459 13.8322 5.78459 17.5151 7.47441 19.4864L7.47435 19.4863Z" fill="#AD782A"/>
<path d="M4.43896 4.7041L7.61395 7.87908M17.4035 17.6686L20.5785 20.8436" stroke="#AD782A" stroke-width="1.05833" stroke-linecap="round" stroke-linejoin="round"/>
</svg>
