<svg width="16" height="15" viewBox="0 0 16 15" fill="none" xmlns="http://www.w3.org/2000/svg">
<path d="M2.81201 6.66821H4.29986V7.98966H2.81201V6.66821Z" fill="#7E7E7E"/>
<path d="M5.74414 6.66821H7.23199V7.98966H5.74414V6.66821Z" fill="#7E7E7E"/>
<path d="M8.67651 6.66821H10.1644V7.98966H8.67651V6.66821Z" fill="#7E7E7E"/>
<path d="M2.81201 8.93622H4.29986V10.2577H2.81201V8.93622Z" fill="#7E7E7E"/>
<path d="M5.74414 8.93622H7.23199V10.2577H5.74414V8.93622Z" fill="#7E7E7E"/>
<path d="M12.9763 8.25088V1.52786H10.5682V0.616852H9.51181V1.52786H7.01632V0.616852H5.95996V1.52786H3.46446V0.616852H2.4081V1.52786H0V12.8446H9.31584C9.86507 13.7642 10.8668 14.3831 12.0127 14.3831C13.7453 14.3825 15.1548 12.9729 15.1548 11.2404C15.1548 9.84394 14.2386 8.65866 12.9762 8.25083L12.9763 8.25088ZM1.05633 2.58432H2.40868V3.08554H3.46503V2.58432H5.96053V3.08554H7.01689V2.58432H9.51171V3.08554H10.5681V2.58432H11.9204V4.42007H1.05609L1.05633 2.58432ZM8.87049 11.2404C8.87049 11.4279 8.89023 11.6101 8.9218 11.7883H1.05627V5.1746H11.9206V8.10302C10.2308 8.15235 8.87061 9.53891 8.87061 11.2406L8.87049 11.2404ZM12.0126 13.3262C10.8628 13.3262 9.92679 12.3902 9.92679 11.2404C9.92679 10.09 10.8628 9.15461 12.0126 9.15461C13.163 9.15461 14.0984 10.0906 14.0984 11.2404C14.0984 12.3908 13.1631 13.3262 12.0126 13.3262Z" fill="#7E7E7E"/>
<path d="M12.4214 9.95059H11.6038V11.6489H13.2311V10.8313H12.4214V9.95059Z" fill="#7E7E7E"/>
</svg>
