<svg width="21" height="19" viewBox="0 0 21 19" fill="none" xmlns="http://www.w3.org/2000/svg">
<path d="M15.3763 14.8257L2.23376 14.8257L2.23376 15.3836L2.23376 15.3826C2.23586 16.9889 3.53734 18.2905 5.14355 18.2924L17.61 18.2924C19.2163 18.2902 20.5179 16.9888 20.5198 15.3826L20.5198 7.08439C20.5187 6.016 19.9334 5.03406 18.9937 4.5257L18.9937 11.2071C18.9915 13.2047 17.3726 14.8227 15.3762 14.8257L15.3763 14.8257ZM15.3763 -7.69073e-06L2.90983 -7.83939e-06C1.30355 0.00209976 0.00193425 1.30358 4.40525e-05 2.90978L4.39535e-05 11.208C0.00215346 12.8142 1.30363 14.1159 2.90983 14.1178L15.3763 14.1178C16.9826 14.1156 18.2842 12.8142 18.2861 11.208L18.2861 2.90978C18.284 1.3035 16.9825 0.00188251 15.3763 -7.69073e-06ZM16.72 6.6941L16.72 11.2082C16.7189 11.9497 16.1177 12.5509 15.3763 12.5509L2.90983 12.5509C2.16839 12.5509 1.56721 11.9497 1.56615 11.2082L1.56615 6.6941L16.72 6.6941ZM15.3763 1.56626C16.1177 1.56732 16.7189 2.1685 16.72 2.90994L16.72 3.61553L1.56621 3.61553L1.56621 2.90994C1.56726 2.1685 2.16844 1.56732 2.90989 1.56626L15.3763 1.56626Z" fill="black"/>
</svg>
