<svg width="62" height="62" viewBox="0 0 62 62" fill="none" xmlns="http://www.w3.org/2000/svg">
<circle cx="31" cy="31" r="31" fill="#F1F1F1"/>
<path d="M41.2001 23.1167H37.3757V21.3908C37.3757 17.7885 34.4324 14.856 30.8228 14.856C27.2112 14.856 24.2699 17.7903 24.2699 21.3908V23.1167H20.4454C19.4084 23.1167 18.6055 23.9171 18.5576 24.9062L18.5575 24.9074L17.8592 42.4716L17.8592 42.4718C17.8134 43.6854 18.2645 44.854 19.1201 45.7509C19.9751 46.6491 21.1471 47.144 22.3632 47.144H39.5857C40.8454 47.144 42.0159 46.6495 42.8731 45.7509C43.7263 44.8581 44.2234 43.689 44.1336 42.4257C44.1336 42.4254 44.1335 42.4251 44.1335 42.4249L43.088 24.9062C43.088 24.9059 43.088 24.9057 43.0879 24.9054C43.0395 23.9144 42.1921 23.1167 41.2001 23.1167ZM41.4474 44.3766L41.4473 44.3765L41.4432 44.381C40.9909 44.872 40.3331 45.16 39.6313 45.16L22.4071 45.1617C21.7496 45.1617 21.0902 44.8748 20.6358 44.4229C20.1819 43.9291 19.9357 43.3136 19.9351 42.6132L20.6278 25.1902H24.3138V30.1228V30.2668H24.4578H26.2018H26.3459L26.3458 30.1227L26.3442 25.1885H35.3436V30.121V30.265H35.4876H37.2317H37.3757V30.121V25.1885H41.0644L42.1021 42.575L42.1021 42.5756C42.1441 43.2358 41.9375 43.888 41.4474 44.3766ZM26.3442 21.3928C26.3442 18.9082 28.3725 16.8851 30.8651 16.8851C33.3577 16.8851 35.386 18.9083 35.386 21.3928V23.1187H26.3442V21.3928Z" fill="#D8D8D8" stroke="#D8D8D8" stroke-width="0.287973"/>
</svg>
