<svg width="32" height="31" viewBox="0 0 32 31" fill="none" xmlns="http://www.w3.org/2000/svg">
<ellipse cx="16" cy="15.5" rx="16" ry="15.5" fill="#E4032E"/>
<path d="M21.6133 15.082C21.8066 15.082 21.9033 15.1787 21.9033 15.372V16.039C21.9033 16.2323 21.8066 16.329 21.6133 16.329H17.2053C17.128 16.329 17.0893 16.3677 17.0893 16.445V20.824C17.0893 21.0173 16.9926 21.114 16.7993 21.114H16.1613C15.968 21.114 15.8713 21.0173 15.8713 20.824V16.445C15.8713 16.3677 15.8326 16.329 15.7553 16.329H11.3473C11.154 16.329 11.0573 16.2323 11.0573 16.039V15.372C11.0573 15.1787 11.154 15.082 11.3473 15.082H15.7553C15.8326 15.082 15.8713 15.0433 15.8713 14.966V10.558C15.8713 10.3647 15.968 10.268 16.1613 10.268H16.7993C16.9926 10.268 17.0893 10.3647 17.0893 10.558V14.966C17.0893 15.0433 17.128 15.082 17.2053 15.082H21.6133Z" fill="white"/>
</svg>
