<svg width="19" height="13" viewBox="0 0 19 13" fill="none" xmlns="http://www.w3.org/2000/svg">
<path d="M18.3214 5.01233C18.5013 5.01233 18.6743 4.93649 18.8015 4.80108C18.9287 4.66566 19 4.4815 19 4.29011V0.722214C19 0.530826 18.9287 0.346658 18.8015 0.211249C18.6743 0.075832 18.5013 0 18.3214 0L0.67858 0C0.303661 0 8.69751e-06 0.323186 8.69751e-06 0.722223L8.69751e-06 4.29012C8.69751e-06 4.48151 0.0712576 4.66568 0.19849 4.80109C0.325723 4.9365 0.498755 5.01234 0.678571 5.01234C1.42839 5.01234 2.03571 5.65873 2.03571 6.45678C2.03571 7.25483 1.42839 7.90123 0.678571 7.90123C0.303653 7.90123 0 8.22441 0 8.62345L0 12.2778C0 12.4692 0.0712489 12.6533 0.198482 12.7887C0.325714 12.9242 0.498747 13 0.678563 13L18.3214 13C18.5012 13 18.6743 12.9242 18.8015 12.7887C18.9287 12.6533 19 12.4692 19 12.2778V8.62345C19 8.43206 18.9287 8.2479 18.8015 8.11249C18.6743 7.97707 18.5012 7.90124 18.3214 7.90124C17.5716 7.90124 16.9643 7.25484 16.9643 6.45679C16.9643 5.65874 17.5716 5.01234 18.3214 5.01234L18.3214 5.01233ZM14.0804 10.2918C14.0804 10.5907 13.8522 10.8335 13.5715 10.8335C13.2907 10.8335 13.0625 10.5907 13.0625 10.2918V9.56961C13.0625 9.27079 13.2907 9.02793 13.5715 9.02793C13.8522 9.02793 14.0804 9.27079 14.0804 9.56961V10.2918ZM14.0804 6.86122C14.0804 7.16004 13.8522 7.4029 13.5715 7.4029C13.2907 7.4029 13.0625 7.16004 13.0625 6.86122V6.13899C13.0625 5.84017 13.2907 5.59732 13.5715 5.59732C13.8522 5.59732 14.0804 5.84017 14.0804 6.13899V6.86122ZM14.0804 3.61133C14.0804 3.91016 13.8522 4.15301 13.5715 4.15301C13.2907 4.15301 13.0625 3.91016 13.0625 3.61133V2.88911C13.0625 2.59028 13.2907 2.34743 13.5715 2.34743C13.8522 2.34743 14.0804 2.59028 14.0804 2.88911V3.61133Z" fill="black"/>
</svg>
