<svg width="48" height="48" viewBox="0 0 48 48" fill="none" xmlns="http://www.w3.org/2000/svg">
<circle cx="24" cy="24" r="24" fill="#D40028"/>
<path fill-rule="evenodd" clip-rule="evenodd" d="M28 14H11.4209C10.6362 14 10 14.6059 10 15.3533V20.1505C10 20.4269 10.2134 20.6613 10.5007 20.7005C12.2123 20.9336 13.5 22.3365 13.5 24C13.5 25.6635 12.2123 27.0664 10.5007 27.2995C10.2134 27.3387 10 27.5731 10 27.8495V32.6467C10 33.3941 10.6362 34 11.4209 34H28V30.5C28 30.2239 28.2239 30 28.5 30C28.7761 30 29 30.2239 29 30.5V34H36.5791C37.3638 34 38 33.3941 38 32.6467V27.8495C38 27.5731 37.7866 27.3387 37.4993 27.2995C35.7877 27.0664 34.5 25.6635 34.5 24C34.5 22.3365 35.7877 20.9336 37.4993 20.7005C37.7866 20.6613 38 20.4269 38 20.1505V15.3533C38 14.6059 37.3638 14 36.5791 14H29V17.5C29 17.7761 28.7761 18 28.5 18C28.2239 18 28 17.7761 28 17.5V14ZM28.5 21C28.2239 21 28 21.2239 28 21.5V26.5C28 26.7761 28.2239 27 28.5 27C28.7761 27 29 26.7761 29 26.5V21.5C29 21.2239 28.7761 21 28.5 21Z" fill="white"/>
</svg>
