<svg width="25" height="25" viewBox="0 0 25 25" fill="none" xmlns="http://www.w3.org/2000/svg">
<circle cx="12.6415" cy="12.6415" r="11.6416" stroke="#0866A4" stroke-width="1.05833"/>
<path d="M12.2879 11.598C12.9834 11.8909 13.7946 12.0359 14.881 11.502C14.9594 11.84 15.0191 12.223 15.0485 12.6834L15.0309 18.5964C15.0299 18.9608 14.9231 19.1998 14.7536 19.3644C14.5852 19.527 14.3344 19.624 13.9856 19.624H10.7214C10.3717 19.624 10.1219 19.527 9.95341 19.3644C9.78393 19.2008 9.67812 18.9608 9.67617 18.5964L9.65853 12.6834C9.68792 12.223 9.7467 11.84 9.82507 11.502C10.646 10.9887 11.2152 11.1484 12.2878 11.598H12.2879ZM9.94073 4.8053C9.61549 4.8053 9.35294 5.06784 9.35294 5.39308V6.11702C9.35294 6.40306 9.55474 6.63915 9.82316 6.69304V7.20539C9.82316 8.03122 9.58511 8.58079 9.29907 9.30374C9.01303 10.0267 8.60355 10.9005 8.60844 12.2572L8.62803 19.0216C8.62901 19.5741 8.81122 20.0522 9.15114 20.3803C9.49108 20.7066 9.96717 20.8662 10.4962 20.8662H14.21C14.74 20.8662 15.2161 20.7065 15.555 20.3803C15.895 20.0522 16.0762 19.5751 16.0772 19.0216L16.0958 12.2572C16.1007 10.9004 15.6922 10.0266 15.4061 9.30374C15.1201 8.58079 14.881 8.03122 14.881 7.20539V6.69304C15.1495 6.63917 15.3513 6.40209 15.3513 6.11702L15.3532 5.39211C15.3532 5.06687 15.0907 4.80432 14.7654 4.80432L9.94073 4.8053Z" fill="#0866A4"/>
<path d="M4.4397 4.70398L7.61468 7.87896M17.4042 17.6685L20.5792 20.8435" stroke="#0866A4" stroke-width="1.05833" stroke-linecap="round" stroke-linejoin="round"/>
<g clip-path="url(#clip0_474_1152)">
<path fill-rule="evenodd" clip-rule="evenodd" d="M11.1563 12.5811C11.1024 12.5807 11.0539 12.6143 11.0358 12.6653C11.0358 12.6653 10.8256 13.2141 10.9861 13.7168C10.9683 13.7154 10.9503 13.715 10.9324 13.715C10.8201 13.716 10.7079 13.7453 10.6073 13.8034L10.6071 13.8036H10.6061C10.3913 13.9276 10.2635 14.1624 10.2746 14.4101V14.4102C10.2766 14.4515 10.2986 14.4891 10.3336 14.5113C10.5086 14.6232 10.7236 14.6456 10.9152 14.5771C10.9148 14.5923 10.914 14.6074 10.914 14.6227V14.9831C10.9808 14.9248 11.0525 14.8719 11.1282 14.8254C11.4789 14.6092 11.9267 14.4917 12.4135 14.4917C12.9004 14.4917 13.3481 14.6092 13.6991 14.8254C13.7747 14.8719 13.8465 14.925 13.9132 14.9831V14.6227C13.9132 14.6074 13.9124 14.5921 13.9121 14.5769C14.1035 14.6452 14.319 14.6227 14.4938 14.5111V14.5109C14.5285 14.4887 14.5501 14.4511 14.5521 14.4099C14.5633 14.162 14.4353 13.9282 14.2206 13.8042C14.1213 13.7469 14.0089 13.716 13.8944 13.715H13.8942C13.8766 13.7148 13.8588 13.7158 13.8413 13.717C14.0018 13.2143 13.7916 12.6655 13.7916 12.6655L13.7914 12.6653C13.7732 12.6144 13.7248 12.5807 13.6707 12.5811C13.6168 12.5817 13.5691 12.6163 13.5518 12.6673C13.4668 12.9173 13.4092 13.0685 13.3497 13.1577C13.2988 13.2341 13.2497 13.2748 13.1502 13.3172C12.9327 13.1943 12.6814 13.124 12.4137 13.124C12.1458 13.124 11.8948 13.1943 11.6771 13.3172C11.5774 13.2748 11.5284 13.2341 11.4773 13.1577C11.4179 13.0685 11.3602 12.9173 11.2752 12.6673C11.258 12.6163 11.2102 12.5817 11.1563 12.5811L11.1563 12.5811ZM11.8274 13.8682L11.8276 13.8684C11.8613 13.8684 11.8934 13.8818 11.9171 13.9058C11.9407 13.9296 11.954 13.9619 11.9538 13.9956V14.2371C11.9538 14.3068 11.8973 14.3633 11.8276 14.3637C11.7939 14.3637 11.7616 14.3504 11.7376 14.3269C11.7139 14.3031 11.7004 14.2708 11.7002 14.2371V13.9956C11.7002 13.9619 11.7135 13.9294 11.7374 13.9054C11.7612 13.8814 11.7937 13.8682 11.8276 13.8684L11.8274 13.8682ZM12.9993 13.8682L12.9995 13.8684C13.0332 13.8682 13.0657 13.8814 13.0897 13.9054C13.1137 13.9294 13.1269 13.9619 13.1268 13.9956V14.2371C13.1268 14.2708 13.1133 14.3031 13.0895 14.3269C13.0655 14.3504 13.0332 14.3637 12.9995 14.3637C12.9298 14.3633 12.8733 14.3068 12.8731 14.2371V13.9956C12.8731 13.9619 12.8862 13.9296 12.91 13.9058C12.9338 13.8818 12.9659 13.8684 12.9995 13.8684L12.9993 13.8682ZM12.4134 14.7451C11.9682 14.7451 11.5634 14.8547 11.2611 15.0411C10.9585 15.2276 10.751 15.5018 10.751 15.8188C10.751 16.1359 10.9585 16.4093 11.2611 16.5957C11.5636 16.7821 11.9682 16.8927 12.4134 16.8927C12.8587 16.8927 13.2635 16.7822 13.5658 16.5957C13.8684 16.4093 14.0759 16.1358 14.0759 15.8188C14.0759 15.5018 13.8684 15.2276 13.5658 15.0411C13.2633 14.8547 12.8587 14.7451 12.4134 14.7451ZM11.8398 15.6782V15.6784C11.8773 15.6782 11.9133 15.6928 11.9399 15.7194C11.9664 15.7457 11.9811 15.7818 11.9811 15.8193C11.9809 15.8565 11.966 15.8924 11.9395 15.9185C11.9131 15.9449 11.8773 15.9595 11.8398 15.9593C11.7625 15.9591 11.7001 15.8965 11.6999 15.8193C11.6997 15.7418 11.7623 15.6786 11.8398 15.6784L11.8398 15.6782ZM12.9859 15.6782V15.6784C13.0233 15.6782 13.0594 15.6928 13.0857 15.7194C13.1123 15.7457 13.1271 15.7818 13.1271 15.8193C13.1269 15.8565 13.1121 15.8924 13.0855 15.9185C13.059 15.9449 13.0231 15.9595 12.9859 15.9593C12.9086 15.9591 12.8462 15.8965 12.846 15.8193C12.8458 15.7418 12.9084 15.6786 12.9859 15.6784L12.9859 15.6782Z" fill="#0866A4"/>
</g>
<defs>
<clipPath id="clip0_474_1152">
<rect width="5.07234" height="5.07234" fill="white" transform="translate(9.87695 12.2009)"/>
</clipPath>
</defs>
</svg>
