<svg width="32" height="31" viewBox="0 0 32 31" fill="none" xmlns="http://www.w3.org/2000/svg">
<circle opacity="0.9" cx="16.3309" cy="15.4437" r="15.4437" fill="#F6F6F6"/>
<path d="M15.8661 10C10.8255 10 6.99552 15.0717 6.99552 15.0717C6.8511 15.2583 6.8511 15.5163 6.99552 15.7029C6.99552 15.7029 10.8247 20.7746 15.8661 20.7746C20.9066 20.7746 24.7366 15.7029 24.7366 15.7029C24.8811 15.5163 24.8811 15.2583 24.7366 15.0717C24.7366 15.0717 20.9066 10 15.8661 10ZM15.8661 11.0385C19.4888 11.0385 22.7066 14.3495 23.6258 15.3874C22.7065 16.4251 19.4888 19.7363 15.8661 19.7363C12.2433 19.7363 9.02556 16.4253 8.10635 15.3874C9.02568 14.3497 12.2433 11.0385 15.8661 11.0385ZM15.876 11.7525C14.6216 11.7509 13.4257 12.434 12.8334 13.5829C12.075 15.0538 12.5255 16.8584 13.8905 17.8157C15.2555 18.7739 17.1378 18.6059 18.3055 17.4222V17.423C18.4054 17.3248 18.4615 17.1909 18.4606 17.0522C18.459 16.9127 18.4012 16.7796 18.2997 16.6831C18.1982 16.5865 18.0612 16.5338 17.9201 16.5362C17.779 16.5394 17.6445 16.5987 17.5479 16.7001C16.7384 17.5204 15.451 17.6348 14.5044 16.9711C13.5579 16.3074 13.2501 15.0725 13.7758 14.0535C14.3014 13.0344 15.4972 12.5492 16.6006 12.9079C17.7048 13.2665 18.3716 14.3553 18.176 15.4823V15.4815C18.1504 15.6178 18.1817 15.759 18.2626 15.8726C18.3435 15.987 18.4681 16.0641 18.6067 16.0868C18.7462 16.1103 18.889 16.0779 19.0037 15.9967C19.1184 15.9156 19.1951 15.7931 19.2174 15.656C19.4988 14.03 18.5242 12.4382 16.9315 11.9215C16.5833 11.8087 16.2276 11.7535 15.8761 11.7535L15.876 11.7525Z" fill="#272727"/>
</svg>
