<svg width="31" height="31" viewBox="0 0 31 31" fill="none" xmlns="http://www.w3.org/2000/svg">
<circle opacity="0.9" cx="15.4437" cy="15.4437" r="15.4437" fill="#F6F6F6"/>
<path d="M23.0325 15.9026L22.7688 16.2114C22.4602 16.5503 22.0963 16.9438 21.669 17.3811L22.513 18.2011C22.6152 18.3008 22.6745 18.4381 22.6785 18.583C22.6824 18.7285 22.6304 18.8693 22.5341 18.9745C22.4345 19.0838 22.2967 19.146 22.1517 19.1467C22.0165 19.1467 21.886 19.0927 21.7877 18.9964L20.8858 18.1109C20.3042 18.624 19.6719 19.0715 19.0001 19.4473L19.5275 20.5405C19.6541 20.8125 19.5447 21.1391 19.2823 21.2703C19.2111 21.3065 19.1326 21.3256 19.0528 21.3249C18.8544 21.3324 18.6691 21.2231 18.5728 21.0434L18.0453 19.9229C17.2634 20.2358 16.4399 20.4217 15.6031 20.4749V21.6365C15.6031 21.9385 15.3671 22.1831 15.0757 22.1831C14.7843 22.1831 14.5482 21.9385 14.5482 21.6365V20.4749C13.7102 20.4182 12.8854 20.2283 12.1035 19.9119L11.576 21.0325C11.487 21.2204 11.3031 21.3393 11.1013 21.3386C11.0215 21.3393 10.9431 21.3201 10.8719 21.2839C10.6108 21.1514 10.502 20.8254 10.6292 20.5542L11.1567 19.461C10.4848 19.0824 9.85384 18.6322 9.27368 18.1163L8.35853 19.0018C8.14689 19.2095 7.8126 19.1993 7.61216 18.9799C7.41173 18.7606 7.42162 18.4142 7.63326 18.2065L8.47721 17.3866C8.05523 16.9602 7.68601 16.5667 7.39326 16.2168L7.12953 15.908C6.94294 15.6859 6.96008 15.3511 7.16711 15.1503C7.37481 14.9494 7.69853 14.9542 7.89962 15.1619L8.17917 15.4762C9.4741 16.9438 11.6473 19.4036 15.0757 19.4036C18.5041 19.4036 20.6774 16.9439 21.9802 15.4734L22.2624 15.1591C22.4634 14.9514 22.7872 14.9466 22.9949 15.1475C23.2019 15.3483 23.219 15.6831 23.0324 15.9052L23.0325 15.9026Z" fill="#3C3C3C"/>
</svg>
