<svg height="24" viewBox="0 0 24 24" width="24" xmlns="http://www.w3.org/2000/svg" class="c-socialIcon --facebookLogo">
  <path d="m22.6754063 0h-21.35078911c-.73157813 0-1.32461719.5930625-1.32461719 1.32461719v21.35076561c0 .7315078.59285156 1.3246172 1.32461719 1.3246172h11.49569531v-9.28125h-3.1171875v-3.6328125h3.1171875v-2.67339844c0-3.09991406 1.8931172-4.78788281 4.6583203-4.78788281 1.3245235 0 2.4629531.098625 2.7948047.14271094v3.23957812l-1.9070625.00086719c-1.5047109 0-1.7960625.71505469-1.7960625 1.76430469v2.31382031h3.5973516l-.4684219 3.6328125h-3.1289297v9.28125h6.1050938c.7315546 0 1.3245937-.5930391 1.3245937-1.3245937v-21.35083599c0-.73153125-.5930391-1.32457031-1.3245937-1.32457031" fill="#fff" fill-rule="evenodd"></path>
</svg>