<svg width="25" height="25" viewBox="0 0 25 25" fill="none" xmlns="http://www.w3.org/2000/svg">
<circle cx="12.6417" cy="12.6415" r="11.6416" stroke="#4D08A4" stroke-width="1.05833"/>
<path d="M12.2884 11.598C12.9839 11.8909 13.795 12.0359 14.8815 11.502C14.9599 11.84 15.0196 12.223 15.049 12.6834L15.0314 18.5964C15.0304 18.9608 14.9236 19.1998 14.7541 19.3644C14.5856 19.527 14.3348 19.624 13.9861 19.624H10.7219C10.3722 19.624 10.1224 19.527 9.95389 19.3644C9.78442 19.2008 9.67861 18.9608 9.67665 18.5964L9.65902 12.6834C9.68841 12.223 9.74719 11.84 9.82555 11.502C10.6465 10.9887 11.2156 11.1484 12.2883 11.598H12.2884ZM9.94122 4.8053C9.61597 4.8053 9.35343 5.06784 9.35343 5.39308V6.11702C9.35343 6.40306 9.55523 6.63915 9.82365 6.69304V7.20539C9.82365 8.03122 9.5856 8.58079 9.29956 9.30374C9.01352 10.0267 8.60404 10.9005 8.60893 12.2572L8.62852 19.0216C8.6295 19.5741 8.81171 20.0522 9.15163 20.3803C9.49157 20.7066 9.96765 20.8662 10.4967 20.8662H14.2105C14.7405 20.8662 15.2166 20.7065 15.5555 20.3803C15.8955 20.0522 16.0767 19.5751 16.0777 19.0216L16.0963 12.2572C16.1012 10.9004 15.6927 10.0266 15.4066 9.30374C15.1206 8.58079 14.8815 8.03122 14.8815 7.20539V6.69304C15.1499 6.63917 15.3517 6.40209 15.3517 6.11702L15.3537 5.39211C15.3537 5.06687 15.0912 4.80432 14.7659 4.80432L9.94122 4.8053Z" fill="#4D08A4"/>
<path d="M4.43994 4.70398L7.61492 7.87896M17.4044 17.6685L20.5794 20.8435" stroke="#4D08A4" stroke-width="1.05833" stroke-linecap="round" stroke-linejoin="round"/>
<g clip-path="url(#clip0_474_1126)">
<g clip-path="url(#clip1_474_1126)">
<path d="M12.4124 12.2224C12.4124 12.2224 10.8806 14.1527 10.8806 15.5093C10.8806 16.3552 11.5664 17.0411 12.4124 17.0411C13.2584 17.0411 13.9442 16.3552 13.9442 15.5093C13.9442 14.1527 12.4124 12.2224 12.4124 12.2224ZM13.4233 15.693C13.3554 16.0683 13.0754 16.3821 12.7097 16.4929C12.6968 16.4967 12.6839 16.4989 12.671 16.4989C12.6132 16.4989 12.5603 16.4614 12.5424 16.4036C12.521 16.3328 12.5612 16.2585 12.6318 16.2371C12.9022 16.1553 13.1093 15.9229 13.1596 15.6455C13.1731 15.5726 13.2426 15.5244 13.3153 15.5379C13.3885 15.5506 13.4366 15.6201 13.4233 15.693L13.4233 15.693Z" fill="#4D08A4"/>
</g>
</g>
<defs>
<clipPath id="clip0_474_1126">
<rect width="5.07234" height="5.07234" fill="white" transform="translate(9.87671 12.2009)"/>
</clipPath>
<clipPath id="clip1_474_1126">
<rect width="5.07234" height="5.07234" fill="white" transform="translate(9.87671 12.0955)"/>
</clipPath>
</defs>
</svg>
