<svg width="37" height="38" viewBox="0 0 37 38" fill="none" xmlns="http://www.w3.org/2000/svg">
<path d="M33.86 1.41938C31.6328 0.193903 29.8365 1.76473 27.5398 1.69516C24.6278 1.61134 22.0143 0.263484 19.0369 0.437834C13.3245 0.76893 8.82909 3.44704 5.03196 7.5627C2.43348 10.6163 1.11999 14.7865 0.621253 18.706C0.296463 20.823 0.357808 22.9813 0.802311 25.0765C1.09736 26.3338 1.6598 27.6381 1.44773 28.9448C1.26584 30.0681 0.713438 31.1242 0.632969 32.2759C0.405811 35.5114 2.99927 36.8685 5.84754 36.1845C6.8043 35.8332 7.79869 35.5944 8.81065 35.4729C9.77932 35.5669 10.7349 35.7659 11.6606 36.0663C13.4088 36.4585 15.1991 36.6303 16.99 36.5777C21.1523 36.352 25.1552 34.9018 28.4962 32.4092C31.6748 30.1385 33.3931 26.9608 34.5088 23.255C35.1263 21.2661 35.4841 19.2057 35.5733 17.1251C35.6446 14.9759 35.0486 12.9139 35.0301 10.7798C35.0016 7.5342 37.658 3.50571 33.86 1.41938ZM34.886 5.65742C34.5402 7.082 34.2713 8.52415 34.0804 9.9776C33.9413 13.4495 34.8826 16.6557 34.2573 20.1678C33.6521 23.571 32.3831 27.5442 29.8827 30.0513C26.8798 32.9205 23.0664 34.7956 18.9607 35.4217C15.8307 35.8844 13.0797 35.2357 10.0303 34.6565C9.00891 34.4678 7.95694 34.5314 6.96574 34.8417C6.11152 35.1721 5.21759 35.3888 4.30691 35.4863C2.26165 35.4721 1.4209 33.7369 1.65979 31.9389C1.86851 30.3715 2.6313 29.0999 2.39827 27.4922C2.08646 25.3506 1.34127 23.4687 1.3924 21.2525C1.50305 16.8099 2.77547 11.706 5.71762 8.25003C8.90872 4.78986 12.415 2.48308 17.104 1.64403C19.501 1.26525 21.9517 1.41139 24.2867 2.07236C25.862 2.59344 27.5326 2.76199 29.1802 2.56607C30.3537 2.32467 30.9111 1.93405 32.2087 2.10673C32.636 2.11645 33.0556 2.22274 33.4361 2.41764C33.8165 2.61255 34.1479 2.89102 34.4055 3.23218C34.663 3.57333 34.84 3.96835 34.9232 4.38763C35.0064 4.80691 34.9937 5.23958 34.886 5.65323V5.65742Z" fill="#252525"/>
<path d="M19.5705 0C21.0013 0.0503847 22.4212 0.268701 23.801 0.650459C25.0268 0.985831 26.2837 1.1948 27.5521 1.2741H27.6887C28.4301 1.24374 29.1646 1.1181 29.8739 0.900252C30.5814 0.68282 31.3138 0.557165 32.0533 0.526394C32.7563 0.523684 33.448 0.703329 34.0608 1.04777C34.6666 1.3391 35.1885 1.77937 35.5777 2.32736C35.9669 2.87535 36.2108 3.51314 36.2863 4.18103C36.352 5.4245 36.2138 6.67034 35.8773 7.8692C35.6308 8.81865 35.4869 9.79181 35.4481 10.772C35.4777 11.7381 35.5682 12.7015 35.7188 13.6563C35.9079 14.806 35.999 15.9697 35.9912 17.1349C35.9011 19.2519 35.5373 21.3484 34.9091 23.3721C33.6082 27.6897 31.6476 30.6646 28.739 32.7459C27.028 33.9804 25.1624 34.985 23.19 35.7341C21.2094 36.4847 19.1203 36.9093 17.0039 36.9915C16.7793 36.999 16.5496 37.0032 16.3224 37.0032C14.7236 36.9971 13.1302 36.8184 11.5697 36.4701C11.2671 36.4039 10.962 36.3175 10.6678 36.2354C10.0716 36.0365 9.45134 35.9192 8.82374 35.8867H8.81284C8.17494 35.9249 7.54672 36.0612 6.9503 36.2907C6.62508 36.3963 6.28813 36.5045 5.94446 36.5874C5.45053 36.7081 4.94408 36.77 4.43565 36.7718C3.84287 36.7934 3.25201 36.6925 2.70004 36.4753C2.14807 36.2581 1.64687 35.9293 1.22778 35.5095C0.840304 35.0654 0.550212 34.5451 0.376237 33.982C0.202263 33.4189 0.14828 32.8257 0.217741 32.2404C0.289217 31.5651 0.440887 30.9008 0.669543 30.2614C0.825111 29.8076 0.947798 29.3431 1.03667 28.8716C1.10754 27.9357 0.976318 26.9955 0.651918 26.1147C0.563905 25.8037 0.471711 25.4827 0.400462 25.1667C-0.059692 23.0232 -0.123905 20.8136 0.211013 18.647C0.625094 15.3914 1.74329 10.7778 4.71813 7.28496L4.72903 7.27239C8.94695 2.6999 13.6208 0.325229 19.0173 0.0125728C19.1958 0.0050288 19.3836 0 19.5705 0ZM27.6895 2.11482H27.5269C26.2022 2.03339 24.8892 1.81713 23.6082 1.46939C22.2918 1.10177 20.9365 0.89076 19.5705 0.840726C19.4029 0.840726 19.2277 0.845767 19.0609 0.854987C13.8941 1.15423 9.40796 3.43921 5.34595 7.83986C2.50858 11.1751 1.43651 15.6177 1.03752 18.7577C0.716026 20.8247 0.774829 22.9331 1.21103 24.9789C1.28144 25.2765 1.36609 25.5741 1.45578 25.8901C1.82097 26.8873 1.95982 27.9533 1.86231 29.0108C1.76729 29.5226 1.63537 30.0268 1.46752 30.5196C1.2581 31.0962 1.11742 31.6954 1.04841 32.305C0.988998 32.775 1.0283 33.2522 1.16383 33.7061C1.29936 34.16 1.52813 34.5807 1.8355 34.9412C2.17695 35.2769 2.58387 35.5387 3.03092 35.7103C3.47798 35.882 3.95559 35.9597 4.43398 35.9387C4.87522 35.9366 5.31466 35.8826 5.74327 35.7777C6.05425 35.7031 6.36019 35.6042 6.68542 35.4986C7.3634 35.2409 8.07758 35.091 8.80194 35.0543H8.81619C9.52106 35.0856 10.2183 35.2137 10.8883 35.4349C11.185 35.5187 11.4649 35.5967 11.7441 35.6578C13.2456 35.993 14.779 36.165 16.3174 36.1708C16.5354 36.1708 16.7541 36.1708 16.9695 36.1599C18.9957 36.0807 20.9956 35.6737 22.8916 34.9546C24.7952 34.231 26.5957 33.2607 28.247 32.0686C29.7184 31.0187 30.9655 29.6856 31.915 28.1474C32.8649 26.582 33.6002 24.8961 34.1011 23.1348C34.7082 21.1808 35.0602 19.1565 35.148 17.1122C35.1531 15.9942 35.0642 14.8776 34.8823 13.7745C34.7263 12.7847 34.6334 11.7861 34.604 10.7845C34.6406 9.74133 34.7912 8.70526 35.0533 7.69485C35.3679 6.58809 35.5015 5.43774 35.4489 4.28833C35.3886 3.75252 35.1917 3.24118 34.877 2.80335C34.5623 2.36551 34.1404 2.01586 33.6518 1.78792C33.1633 1.51002 32.6103 1.36548 32.0483 1.36881C31.3802 1.4004 30.7189 1.51674 30.0801 1.715C29.3041 1.95206 28.5004 2.08647 27.6895 2.11482ZM19.5848 1.00167C21.2079 1.02386 22.8221 1.24541 24.3911 1.66135L24.5915 1.70996C25.6899 2.02566 26.8218 2.21051 27.9636 2.26067C28.3455 2.2629 28.7267 2.22611 29.1011 2.15087C29.4364 2.08297 29.7147 2.00166 29.9871 1.92287C30.5084 1.74754 31.0533 1.65231 31.6032 1.6404C31.8255 1.64098 32.0476 1.65638 32.2679 1.68649C32.7504 1.70377 33.2229 1.82846 33.6511 2.0515C34.0793 2.27453 34.4523 2.59028 34.743 2.97574C35.0337 3.36121 35.2348 3.80667 35.3315 4.27967C35.4283 4.75267 35.4183 5.2413 35.3022 5.70995C35.2126 6.33526 35.0684 6.92956 34.9284 7.50458C34.7022 8.31557 34.559 9.14743 34.5009 9.98738C34.4747 11.3614 34.538 12.7356 34.6903 14.1014C34.9625 16.1371 34.9563 18.2005 34.6719 20.2346C34.1187 23.3461 32.8898 27.6252 30.1815 30.341C28.6721 31.8188 26.9285 33.0367 25.0215 33.9454C23.1283 34.8707 21.1064 35.5051 19.024 35.8272C18.2811 35.9366 17.531 35.9906 16.7801 35.9889C14.7791 35.929 12.7887 35.6744 10.8371 35.2287L9.95365 35.061C9.60841 34.9939 9.25758 34.9597 8.90588 34.9588C8.28629 34.969 7.67098 35.0634 7.07688 35.2396C6.84385 35.3033 6.60579 35.3804 6.35349 35.4634C5.70448 35.7144 5.01988 35.8612 4.32501 35.8984H4.30488C3.87397 35.911 3.44553 35.8294 3.04942 35.6593C2.65331 35.4892 2.29909 35.2347 2.01152 34.9135C1.67749 34.4896 1.43661 34.0001 1.3046 33.4768C1.17259 32.9535 1.15241 32.4082 1.24538 31.8766C1.33404 31.2995 1.46489 30.7297 1.63684 30.1717C1.94206 29.332 2.06049 28.4358 1.98386 27.5456C1.87406 26.7912 1.70557 26.0527 1.54212 25.3377C1.17982 23.9999 0.989954 22.6213 0.977147 21.2354C1.03248 18.8673 1.40894 16.5175 2.09619 14.2506C2.76106 11.9553 3.88584 9.81925 5.40213 7.9723L5.41302 7.95973C6.93539 6.26261 8.69513 4.79451 10.6376 3.60099C12.6054 2.42268 14.7739 1.61816 17.0341 1.22799C17.8759 1.07654 18.7295 1.0008 19.5848 1.00167ZM27.967 3.09721C26.758 3.04894 25.5592 2.8559 24.3962 2.5222L24.1958 2.47359C22.6909 2.07391 21.1426 1.86051 19.5856 1.83821C18.7801 1.83734 17.9761 1.90859 17.1833 2.05112C15.0233 2.42248 12.9505 3.18977 11.0693 4.31432C9.19928 5.4665 7.50537 6.8826 6.04 8.51882C4.60059 10.2782 3.53322 12.3114 2.90253 14.4953C2.23783 16.6886 1.8738 18.9619 1.82041 21.253C1.83441 22.5694 2.01723 23.8785 2.3644 25.1483C2.53204 25.8792 2.6997 26.6344 2.81789 27.4215C2.91425 28.4283 2.78774 29.4439 2.44738 30.3963C2.28698 30.916 2.16429 31.4466 2.08025 31.9839C2.00359 32.3978 2.01457 32.8231 2.11246 33.2324C2.21035 33.6417 2.39298 34.0259 2.64857 34.3603C2.85797 34.5919 3.11589 34.7743 3.40394 34.8947C3.69198 35.0151 4.00306 35.0705 4.31496 35.0568H4.33002C4.93556 35.0157 5.53134 34.8829 6.09699 34.6629C6.34846 34.5791 6.60748 34.4952 6.86146 34.4265C7.52703 34.2303 8.21627 34.126 8.91007 34.1164C9.31411 34.1174 9.71714 34.1566 10.1138 34.2337L11.0006 34.4014C12.9 34.8354 14.8369 35.0847 16.7843 35.1457C17.4943 35.1471 18.2034 35.0959 18.9058 34.9923C22.9208 34.3747 26.6503 32.542 29.5923 29.7409C32.1472 27.1784 33.3182 23.0728 33.8513 20.0795C34.1244 18.1188 34.1275 16.13 33.8605 14.1684C33.7044 12.7667 33.6403 11.3564 33.6685 9.94631C33.7289 9.05096 33.88 8.16404 34.1195 7.29921C34.2545 6.74347 34.3944 6.16845 34.4783 5.58337C34.579 5.22473 34.5956 4.84769 34.5268 4.48158C34.458 4.11546 34.3057 3.77015 34.0817 3.4725C33.8577 3.17486 33.5681 2.9329 33.2353 2.76546C32.9025 2.59802 32.5356 2.50961 32.1631 2.50711C31.9792 2.48195 31.7938 2.46907 31.6082 2.46855C31.1365 2.48144 30.6696 2.56624 30.2235 2.72002C29.9494 2.79881 29.6367 2.88767 29.2738 2.96311C28.8423 3.05261 28.4027 3.09754 27.962 3.09721H27.967Z" fill="#252525"/>
<path d="M16.0051 5.32014C13.3442 5.98517 10.979 7.514 9.28001 9.66715C7.51482 11.7211 6.29058 14.1834 5.71842 16.8306C5.60694 17.4433 6.54406 17.7048 6.65722 17.0896C7.15974 14.7061 8.23353 12.4803 9.7863 10.6034C11.3943 8.46692 13.677 6.93629 16.2641 6.25979C16.8609 6.07622 16.6061 5.13574 16.0051 5.32014Z" fill="#252525"/>
<path d="M16.1562 4.87666C16.3694 4.8882 16.5718 4.97406 16.7283 5.11931C16.8848 5.26456 16.9855 5.46002 17.0129 5.67178C17.0403 5.88353 16.9926 6.09819 16.8783 6.27848C16.7639 6.45877 16.5899 6.59331 16.3867 6.65872C13.882 7.30788 11.672 8.78822 10.1185 10.8574C8.59868 12.6768 7.55125 14.843 7.06903 17.1641C7.03892 17.3595 6.93921 17.5375 6.78826 17.6652C6.6373 17.7929 6.44527 17.8617 6.24756 17.859C6.10499 17.8583 5.96431 17.8265 5.83521 17.766C5.70611 17.7055 5.59168 17.6177 5.49987 17.5086C5.41339 17.4053 5.35112 17.2839 5.31761 17.1534C5.28411 17.0228 5.28023 16.8865 5.30625 16.7542C5.8806 14.0361 7.13483 11.5081 8.95167 9.40641C9.81452 8.28981 10.8665 7.33315 12.0598 6.57992C13.2553 5.85987 14.5408 5.30124 15.8829 4.91858C15.9714 4.89115 16.0635 4.87702 16.1562 4.87666ZM6.24339 17.0208V17.0132C6.75539 14.5634 7.85672 12.2753 9.45207 10.3469C10.2746 9.24953 11.2774 8.29975 12.4177 7.53801C13.5706 6.80038 14.8245 6.23425 16.1402 5.85738C16.1788 5.84564 16.1805 5.83475 16.183 5.81631C16.1854 5.79849 16.1841 5.78036 16.1792 5.76306C16.1743 5.74576 16.1658 5.72966 16.1545 5.71573C16.1451 5.71618 16.1358 5.71787 16.1268 5.72075C13.5478 6.36119 11.2547 7.84047 9.60799 9.9261C7.87791 11.9215 6.68119 14.3224 6.12938 16.9051C6.12554 16.9164 6.12467 16.9285 6.12687 16.9403C6.12908 16.952 6.13429 16.963 6.14197 16.9722C6.16825 17.0008 6.20458 17.0183 6.24339 17.0208Z" fill="#252525"/>
<path d="M18.4522 4.93375C18.3266 4.93896 18.2079 4.9925 18.1209 5.08319C18.0339 5.17387 17.9854 5.29467 17.9854 5.42034C17.9854 5.546 18.0339 5.6668 18.1209 5.75749C18.2079 5.84817 18.3266 5.9017 18.4522 5.90692C18.5777 5.9017 18.6964 5.84817 18.7834 5.75749C18.8704 5.6668 18.919 5.546 18.919 5.42034C18.919 5.29467 18.8704 5.17387 18.7834 5.08319C18.6964 4.9925 18.5777 4.93896 18.4522 4.93375Z" fill="#252525"/>
<path d="M18.452 4.51478C18.5706 4.51314 18.6884 4.53555 18.7981 4.58066C18.9077 4.62578 19.0071 4.69266 19.0903 4.77728C19.1734 4.86189 19.2385 4.96247 19.2816 5.07295C19.3248 5.18343 19.3452 5.30151 19.3414 5.42006C19.3434 5.64226 19.2658 5.85783 19.1226 6.02777C19.0395 6.12354 18.9364 6.1999 18.8205 6.25146C18.7046 6.30302 18.5788 6.32852 18.452 6.32617C18.3335 6.32782 18.2157 6.3054 18.106 6.26029C17.9964 6.21517 17.8969 6.14829 17.8138 6.06368C17.7307 5.97907 17.6656 5.87848 17.6224 5.76801C17.5793 5.65753 17.5589 5.53946 17.5627 5.4209C17.5608 5.19872 17.6384 4.98317 17.7815 4.81319C17.8646 4.71742 17.9677 4.64106 18.0836 4.5895C18.1995 4.53794 18.3253 4.51243 18.452 4.51478Z" fill="#252525"/>
<path d="M29.7003 18.8275C29.5748 18.8327 29.4561 18.8863 29.3691 18.977C29.2821 19.0676 29.2335 19.1884 29.2335 19.3141C29.2335 19.4398 29.2821 19.5606 29.3691 19.6513C29.4561 19.7419 29.5748 19.7955 29.7003 19.8007C29.8259 19.7955 29.9446 19.7419 30.0316 19.6513C30.1185 19.5606 30.1671 19.4398 30.1671 19.3141C30.1671 19.1884 30.1185 19.0676 30.0316 18.977C29.9446 18.8863 29.8259 18.8327 29.7003 18.8275Z" fill="#252525"/>
<path d="M29.7017 18.4086C29.8203 18.4069 29.9381 18.4293 30.0477 18.4744C30.1574 18.5195 30.2569 18.5864 30.34 18.671C30.4231 18.7557 30.4882 18.8562 30.5314 18.9667C30.5745 19.0772 30.5948 19.1953 30.5911 19.3138C30.5931 19.536 30.5155 19.7516 30.3723 19.9215C30.2892 20.0173 30.186 20.0937 30.0702 20.1452C29.9543 20.1968 29.8285 20.2223 29.7017 20.22C29.5831 20.2216 29.4654 20.1992 29.3557 20.1541C29.246 20.1089 29.1467 20.0421 29.0635 19.9574C28.9804 19.8728 28.9153 19.7723 28.8721 19.6618C28.829 19.5513 28.8086 19.4332 28.8124 19.3147C28.8104 19.0925 28.888 18.8769 29.0312 18.707C29.1143 18.6112 29.2174 18.5348 29.3333 18.4833C29.4492 18.4317 29.5749 18.4062 29.7017 18.4086Z" fill="#252525"/>
<path d="M27.1755 21.061C27.05 21.0662 26.9313 21.1198 26.8443 21.2105C26.7573 21.3012 26.7087 21.422 26.7087 21.5476C26.7087 21.6733 26.7573 21.7941 26.8443 21.8848C26.9313 21.9755 27.05 22.029 27.1755 22.0342C27.3011 22.029 27.4198 21.9755 27.5068 21.8848C27.5938 21.7941 27.6423 21.6733 27.6423 21.5476C27.6423 21.422 27.5938 21.3012 27.5068 21.2105C27.4198 21.1198 27.3011 21.0662 27.1755 21.061Z" fill="#252525"/>
<path d="M27.1746 20.6421C27.3013 20.6397 27.427 20.6651 27.5429 20.7165C27.6587 20.7679 27.7619 20.8441 27.8452 20.9397C27.9884 21.1096 28.066 21.3251 28.0639 21.5474C28.0677 21.6659 28.0474 21.7841 28.0042 21.8946C27.9611 22.0051 27.896 22.1057 27.8129 22.1904C27.7298 22.2751 27.6304 22.3421 27.5207 22.3873C27.411 22.4325 27.2932 22.455 27.1746 22.4535C27.0478 22.4558 26.922 22.4303 26.8061 22.3788C26.6903 22.3272 26.5872 22.2508 26.504 22.1551C26.3609 21.9851 26.2832 21.7696 26.2852 21.5474C26.2815 21.4288 26.3018 21.3107 26.345 21.2003C26.3881 21.0898 26.4533 20.9892 26.5364 20.9046C26.6195 20.82 26.7189 20.7531 26.8286 20.708C26.9383 20.6628 27.056 20.6404 27.1746 20.6421Z" fill="#252525"/>
<path d="M31.2555 22.6165C31.13 22.6217 31.0113 22.6752 30.9243 22.7659C30.8373 22.8566 30.7887 22.9774 30.7887 23.1031C30.7887 23.2287 30.8373 23.3495 30.9243 23.4402C31.0113 23.5309 31.13 23.5844 31.2555 23.5897C31.3811 23.5844 31.4997 23.5309 31.5867 23.4402C31.6737 23.3495 31.7223 23.2287 31.7223 23.1031C31.7223 22.9774 31.6737 22.8566 31.5867 22.7659C31.4997 22.6752 31.3811 22.6217 31.2555 22.6165Z" fill="#252525"/>
<path d="M31.2562 22.197C31.383 22.1947 31.5088 22.2202 31.6246 22.2717C31.7405 22.3233 31.8436 22.3996 31.9268 22.4954C32.0699 22.6654 32.1475 22.8809 32.1455 23.1031C32.1494 23.2217 32.1292 23.3399 32.0861 23.4505C32.043 23.5611 31.9779 23.6618 31.8947 23.7465C31.8116 23.8312 31.7121 23.8981 31.6024 23.9433C31.4926 23.9885 31.3749 24.0109 31.2562 24.0092C31.1295 24.0116 31.0038 23.9862 30.8879 23.9348C30.7721 23.8834 30.6689 23.8072 30.5856 23.7117C30.4424 23.5418 30.3648 23.3262 30.3669 23.104C30.363 22.9853 30.3832 22.8671 30.4263 22.7565C30.4694 22.6459 30.5345 22.5451 30.6176 22.4603C30.7007 22.3756 30.8002 22.3085 30.9099 22.2633C31.0197 22.218 31.1375 22.1955 31.2562 22.197Z" fill="#252525"/>
<path d="M27.872 24.1439H27.7881C27.6626 24.1491 27.5439 24.2027 27.4569 24.2933C27.3699 24.384 27.3214 24.5048 27.3214 24.6305C27.3214 24.7562 27.3699 24.877 27.4569 24.9676C27.5439 25.0583 27.6626 25.1119 27.7881 25.1171H27.872C27.9975 25.1119 28.1162 25.0583 28.2032 24.9676C28.2902 24.877 28.3388 24.7562 28.3388 24.6305C28.3388 24.5048 28.2902 24.384 28.2032 24.2933C28.1162 24.2027 27.9975 24.1491 27.872 24.1439Z" fill="#252525"/>
<path d="M27.7915 23.7234H27.8753C28.0021 23.721 28.1278 23.7464 28.2436 23.7978C28.3595 23.8492 28.4627 23.9254 28.5459 24.021C28.6891 24.1909 28.7667 24.4064 28.7647 24.6287C28.7684 24.7472 28.7481 24.8654 28.7049 24.9759C28.6618 25.0864 28.5967 25.1871 28.5136 25.2717C28.4305 25.3564 28.3311 25.4234 28.2214 25.4686C28.1117 25.5138 27.994 25.5363 27.8753 25.5348H27.7915C27.5561 25.5276 27.3327 25.429 27.1687 25.26C27.0047 25.0909 26.913 24.8646 26.913 24.6291C26.913 24.3935 27.0047 24.1672 27.1687 23.9982C27.3327 23.8291 27.5561 23.7305 27.7915 23.7234Z" fill="#252525"/>
<path d="M26.0696 16.7652C25.944 16.7704 25.8254 16.824 25.7384 16.9147C25.6514 17.0053 25.6028 17.1261 25.6028 17.2518C25.6028 17.3775 25.6514 17.4983 25.7384 17.5889C25.8254 17.6796 25.944 17.7332 26.0696 17.7384C26.1952 17.7332 26.3138 17.6796 26.4008 17.5889C26.4878 17.4983 26.5364 17.3775 26.5364 17.2518C26.5364 17.1261 26.4878 17.0053 26.4008 16.9147C26.3138 16.824 26.1952 16.7704 26.0696 16.7652Z" fill="#252525"/>
<path d="M26.0703 16.3463C26.1889 16.3446 26.3066 16.367 26.4163 16.4121C26.526 16.4573 26.6254 16.5241 26.7086 16.6088C26.7917 16.6934 26.8568 16.794 26.9 16.9044C26.9431 17.0149 26.9634 17.133 26.9597 17.2515C26.9617 17.4737 26.8841 17.6893 26.7409 17.8592C26.6578 17.955 26.5546 18.0314 26.4388 18.0829C26.3229 18.1345 26.1971 18.16 26.0703 18.1577C25.9517 18.1593 25.834 18.1369 25.7243 18.0918C25.6146 18.0467 25.5152 17.9798 25.4321 17.8952C25.349 17.8105 25.2839 17.71 25.2407 17.5995C25.1975 17.489 25.1772 17.3709 25.181 17.2524C25.179 17.0302 25.2566 16.8146 25.3998 16.6447C25.4829 16.5489 25.586 16.4725 25.7019 16.421C25.8178 16.3694 25.9435 16.3439 26.0703 16.3463Z" fill="#252525"/>
<path d="M23.0021 24.0491L22.9183 24.2125C22.635 24.7691 23.4741 25.262 23.7565 24.7029L23.8403 24.5403C24.1262 23.9829 23.2871 23.49 23.0021 24.0491Z" fill="#252525"/>
<path d="M23.3771 23.3823C23.5396 23.3854 23.6987 23.4292 23.8399 23.5097C23.9811 23.5903 24.0998 23.705 24.1851 23.8433C24.2669 23.9755 24.3127 24.1267 24.3178 24.282C24.3229 24.4373 24.2873 24.5913 24.2145 24.7285L24.1742 24.8123L24.1315 24.8961C24.0633 25.0372 23.957 25.1564 23.8245 25.2401C23.6921 25.3238 23.5388 25.3687 23.3821 25.3697C23.2196 25.3666 23.0605 25.3228 22.9193 25.2423C22.7781 25.1617 22.6594 25.047 22.5741 24.9087C22.4922 24.7766 22.4464 24.6254 22.4412 24.4701C22.4361 24.3147 22.4718 24.1608 22.5447 24.0236L22.6285 23.8559C22.6966 23.715 22.8028 23.5959 22.9351 23.5122C23.0674 23.4285 23.2205 23.3835 23.3771 23.3823Z" fill="#252525"/>
<path d="M23.38 21.1542C23.5055 21.149 23.6242 21.0955 23.7112 21.0048C23.7982 20.9141 23.8468 20.7933 23.8468 20.6677C23.8468 20.542 23.7982 20.4212 23.7112 20.3305C23.6242 20.2398 23.5055 20.1863 23.38 20.1811C23.2544 20.1863 23.1357 20.2398 23.0487 20.3305C22.9617 20.4212 22.9131 20.542 22.9131 20.6677C22.9131 20.7933 22.9617 20.9141 23.0487 21.0048C23.1357 21.0955 23.2544 21.149 23.38 21.1542Z" fill="#252525"/>
<path d="M23.3798 21.5735C23.2612 21.5751 23.1435 21.5527 23.0338 21.5076C22.9241 21.4625 22.8247 21.3956 22.7416 21.311C22.6585 21.2264 22.5934 21.1258 22.5502 21.0153C22.5071 20.9048 22.4867 20.7868 22.4905 20.6682C22.4886 20.446 22.5662 20.2305 22.7093 20.0605C22.7924 19.9647 22.8955 19.8884 23.0114 19.8368C23.1273 19.7852 23.253 19.7597 23.3798 19.7621C23.6153 19.7692 23.8387 19.8678 24.0027 20.0369C24.1667 20.2059 24.2584 20.4322 24.2584 20.6678C24.2584 20.9033 24.1667 21.1296 24.0027 21.2987C23.8387 21.4678 23.6153 21.5663 23.3798 21.5735Z" fill="#252525"/>
</svg>
