<svg width="175" height="48" viewBox="0 0 175 48" fill="none" xmlns="http://www.w3.org/2000/svg">
<path d="M80.6957 36.9249C80.6957 37.9499 80.3113 37.9499 79.4144 37.9499H79.1582L78.9019 37.8218C78.6456 37.6937 78.3894 37.5656 78.1331 37.3093L78.005 37.1812L77.8769 36.9249C77.8769 36.9249 77.8769 36.9249 77.8769 36.7968C77.7487 36.4124 77.6206 35.8999 77.4925 35.5155C77.3644 35.003 77.2362 34.6186 77.2362 34.3624C76.7237 32.3123 76.5956 30.6466 76.5956 29.4935C76.5956 29.1091 76.4675 28.7247 76.4675 28.2122C76.3393 27.4434 76.2112 26.5465 76.2112 25.7778V16.1682H78.005C79.2863 16.1682 80.0551 16.9369 80.1832 18.6026V18.7307V23.2152C80.0551 24.6246 80.0551 25.1371 80.0551 25.1371V30.1341C80.1832 31.6717 80.3113 33.978 80.6957 36.9249ZM25.4725 11.043C25.4725 11.4274 25.0881 12.1962 24.1912 13.99C23.2943 15.6557 22.7818 16.5526 22.3974 17.1932C22.2693 17.3213 22.3974 17.3213 22.3974 17.1932L22.1411 17.7057C21.6286 18.4745 21.1161 19.4995 20.3473 20.9089C20.2192 21.4214 19.963 22.0621 19.5786 22.7027C19.1942 23.3433 18.8098 24.1121 18.4254 24.8809L18.1692 25.3934C18.041 25.6497 17.9129 25.7778 17.9129 25.9059C17.4004 26.8028 16.8879 27.6997 16.2472 28.4685C15.991 29.1091 15.6066 29.8779 15.2222 30.7748C14.966 31.2873 14.7097 31.7998 14.7097 31.9279V32.0561C14.0691 33.0811 13.4284 33.5936 12.6597 33.5936C12.5315 33.5936 12.5315 33.5936 12.4034 33.5936C12.2753 33.5936 12.1471 33.4655 12.019 33.3373C11.8909 33.3373 11.8909 33.2092 11.7628 33.0811C11.2502 32.5686 10.0971 31.4154 8.43143 29.6216C5.997 27.1872 4.2032 25.1371 3.05005 23.4715C1.76877 21.8058 1 20.3964 1 19.6276C1 19.3714 1 19.1151 1.25626 18.8589C1.38438 18.7307 1.51251 18.6026 1.64064 18.4745C1.8969 18.2182 2.15315 18.0901 2.53754 18.0901H4.2032L4.45946 18.6026C4.71572 19.1151 5.22823 20.012 5.86887 20.9089L6.89389 22.5746C7.02202 22.8308 7.15015 22.959 7.40641 23.2152C7.02202 23.3433 7.27828 23.5996 7.53453 23.984C8.55956 25.1371 9.96897 26.5465 11.8909 28.3403L23.5506 10.018L24.1912 8.99299L24.96 9.76176C25.4725 10.1461 25.4725 10.5305 25.4725 11.043ZM76.2112 10.6587C76.2112 10.018 76.4675 9.37738 76.8519 8.99299C77.2362 8.48048 77.8769 8.22422 78.5175 8.22422C79.1582 8.22422 79.7988 8.48048 80.1832 8.99299C80.5676 9.37738 80.952 10.018 80.952 10.6587C80.952 11.2993 80.6957 11.9399 80.1832 12.3243C79.7988 12.8368 79.2863 13.0931 78.6456 13.0931C78.005 13.0931 77.3644 12.8368 76.98 12.4525C76.4675 11.9399 76.2112 11.4274 76.2112 10.6587ZM46.7417 33.4655C46.7417 33.3373 46.7417 33.3373 46.7417 33.3373V33.0811L46.6136 32.8248C45.5886 31.4154 44.5636 29.8779 43.4104 28.3403C42.3854 26.9309 41.3604 25.5215 40.2072 23.8559C38.9259 22.0621 37.7728 20.3964 36.8759 18.987C35.8508 17.4494 35.0821 16.1682 34.3133 15.015L34.1852 14.8869L33.9289 14.5025C33.4164 14.2462 32.9039 13.99 32.6476 13.99C32.2633 13.99 32.007 13.99 31.6226 14.1181C31.2382 14.2462 30.982 14.6306 30.7257 15.015C30.4695 15.9119 30.2132 16.6807 29.957 17.3213C29.7007 17.962 29.5726 18.4745 29.4444 18.8589C28.8038 20.5245 28.2913 21.8058 27.7788 22.8308C27.3944 23.7277 27.01 24.4965 26.6256 25.009C26.3694 25.2653 26.2412 25.3934 26.1131 25.3934L25.7287 25.5215L25.6006 25.9059C25.3443 26.8028 25.4725 26.1622 25.3443 26.5465C24.96 27.6997 24.7037 28.3403 24.5756 28.5966V28.7247C23.6787 30.6466 23.1662 31.7998 23.1662 31.7998L23.038 32.0561V32.3123C23.038 32.6967 23.1662 33.0811 23.2943 33.3373L23.4224 33.4655L23.6787 33.5936C23.8068 33.7217 24.0631 33.978 24.3193 34.1061C24.5756 34.2342 24.96 34.3624 25.3443 34.3624C26.2412 34.3624 27.2663 33.0811 28.035 30.6466C28.5475 29.1091 28.9319 28.3403 29.1882 28.3403H38.9259L45.2042 34.6186L46.8699 36.2843V33.978C46.7417 33.7217 46.7417 33.5936 46.7417 33.4655ZM30.8539 24.7528L32.9039 19.7558L36.8759 25.2653L30.8539 24.7528ZM107.987 33.4655C107.987 33.3373 107.987 33.3373 107.987 33.3373V33.0811L107.859 32.8248C106.834 31.4154 105.809 29.8779 104.656 28.3403C103.631 26.9309 102.606 25.5215 101.452 23.8559C100.171 22.0621 99.018 20.3964 98.1211 18.987C97.0961 17.4494 96.3273 16.1682 95.5585 15.015L95.4304 14.6306L95.3023 14.5025C94.7898 14.2462 94.2773 13.99 94.021 13.99C93.6366 13.99 93.3804 13.99 92.996 14.1181C92.6116 14.2462 92.3553 14.6306 92.0991 15.015C91.8428 15.9119 91.5866 16.6807 91.3303 17.3213C91.0741 17.962 90.9459 18.4745 90.8178 18.8589C90.1772 20.5245 89.6647 21.8058 89.1521 22.8308C88.7678 23.7277 88.3834 24.4965 87.999 25.009C87.7427 25.2653 87.6146 25.3934 87.4865 25.3934L87.1021 25.5215L86.974 25.9059C86.7177 26.8028 86.8458 26.1622 86.7177 26.5465C86.3333 27.6997 86.0771 28.3403 85.9489 28.5966V28.7247C85.052 30.6466 84.5395 31.7998 84.5395 31.7998L84.4114 32.0561V32.3123C84.4114 32.6967 84.5395 33.0811 84.6677 33.3373L84.7958 33.4655L84.9239 33.5936C85.1802 33.7217 85.3083 33.978 85.5646 34.1061C85.8208 34.2342 86.2052 34.3624 86.5896 34.3624C87.4865 34.3624 88.3834 33.0811 89.2803 30.6466C89.7928 29.1091 90.1772 28.3403 90.4334 28.3403H100.171L106.449 34.6186L108.115 36.2843V33.978C108.115 33.8498 107.987 33.5936 107.987 33.4655ZM92.0991 24.8809L94.1491 19.8839L98.1211 25.3934L92.0991 24.8809ZM131.819 10.5305V29.4935C131.819 30.006 131.691 30.6466 131.306 31.2873C131.306 31.4154 131.178 31.4154 131.178 31.5435L131.05 31.6717C130.666 32.0561 130.281 32.1842 129.769 32.1842C129.513 32.1842 129.128 32.0561 128.487 31.7998L128.359 31.6717L128.231 31.5435C128.231 31.5435 128.231 31.5435 128.103 31.4154L127.975 31.2873C127.847 31.1592 127.719 31.1592 127.719 31.031C126.95 30.7748 126.181 30.2623 125.156 29.7498C124.259 29.1091 123.234 28.4685 121.953 27.5716C120.928 26.8028 120.031 26.1622 119.134 25.5215C117.725 24.4965 116.315 23.3433 114.778 22.3183C114.009 21.8058 113.368 21.4214 112.728 20.9089L112.984 26.8028C112.984 26.9309 112.984 27.1872 113.112 27.4434V27.5716C113.112 27.8278 113.24 28.0841 113.368 28.4685C113.625 29.2372 113.881 29.8779 114.009 30.006L114.265 30.2623L113.881 32.5686C113.496 32.6967 113.112 32.6967 112.728 32.6967C112.087 32.6967 111.575 32.4404 111.062 31.7998C110.806 31.5435 110.678 31.2873 110.55 31.031C110.421 30.7748 110.293 30.5185 110.165 30.2623C110.165 30.1341 110.165 30.006 110.037 29.6216C110.037 29.3654 109.909 29.1091 109.909 28.8529C109.653 27.5716 109.525 25.9059 109.396 24.2402C109.396 23.3433 109.268 22.4464 109.268 21.4214C109.268 20.9089 109.012 18.7307 109.012 18.6026C108.884 18.6026 108.628 17.3213 108.628 17.1932C108.628 16.8088 108.756 16.4244 109.14 16.1682L109.268 16.04C109.525 15.7838 109.909 15.5275 110.55 15.2713H110.806L111.19 15.5275L127.591 27.1872L129.897 10.5305C129.897 9.88989 129.897 9.50551 129.897 8.86486C129.897 8.60861 130.025 8.22422 130.153 8.0961C131.178 7.83984 131.563 8.0961 131.691 8.86486L131.819 10.5305ZM73.6486 18.0901V17.962C73.5205 17.7057 73.3924 17.4494 73.2643 17.1932L73.008 16.9369L72.6236 16.8088C71.5986 16.5526 70.0611 16.1682 68.1391 15.9119C67.3704 15.6557 66.8579 15.6557 66.4735 15.5275C65.8328 15.3994 65.3203 15.2713 65.0641 15.2713L56.7357 14.8869C53.7888 14.8869 52.2513 16.1682 52.2513 18.6026C52.2513 18.7307 52.2513 18.987 52.3794 19.2432C52.3794 19.4995 52.5075 19.7558 52.5075 20.012C52.5075 20.2683 52.6356 20.6527 52.6356 20.9089C52.6356 21.037 52.6356 21.1652 52.6356 21.1652V25.3934C52.6356 25.9059 52.6356 26.4184 52.7638 26.9309C52.7638 27.1872 52.8919 27.4434 52.8919 27.6997C51.0981 28.3403 49.6887 28.7247 48.6637 29.1091L47.6386 29.4935L45.7167 30.1341L47.3824 31.2873C47.3824 31.2873 47.5105 31.4154 47.6386 31.4154C47.7668 31.4154 47.7668 31.5435 47.8949 31.5435C48.2793 31.6717 48.7918 31.9279 49.4324 31.9279C49.8168 31.9279 50.4575 31.7998 51.2262 31.6717C51.7387 31.5435 52.5075 31.4154 53.2763 31.1592C53.2763 31.2873 53.4044 31.5435 53.4044 31.6717C53.5325 32.4404 53.7888 33.4655 54.045 34.3624C54.045 34.6186 54.1732 34.8749 54.1732 35.1311C54.1732 35.3874 54.3013 35.6436 54.3013 35.8999C54.6857 37.1812 55.1982 38.3343 55.7107 39.1031L56.3513 40L57.1201 39.2312C57.5045 38.8468 57.7608 38.3343 57.7608 37.6937V37.5656L56.7357 29.7498C56.7357 29.7498 56.8639 29.7498 56.992 29.7498C57.3764 29.6216 57.8889 29.4935 58.2733 29.3654C58.5295 29.2372 58.7858 29.2372 58.9139 29.1091C59.2983 28.981 59.6827 28.8529 60.1952 28.5966C60.5796 28.4685 60.964 28.3403 61.3484 28.2122C63.1421 27.4434 64.5516 26.8028 65.3203 26.2903C65.961 25.9059 66.6016 25.5215 66.986 25.2653C67.2422 25.009 67.6266 24.8809 67.7548 24.7528C68.2673 24.4965 68.7798 24.2402 69.2923 23.8559C69.8048 23.4715 70.3173 23.2152 70.8298 22.7027C71.0861 22.5746 71.3423 22.3183 71.4705 22.1902C71.7267 22.0621 71.983 21.8058 72.1111 21.6777C73.2643 20.6527 73.7768 19.6276 73.7768 18.8589C73.7768 18.6026 73.6486 18.3463 73.6486 18.0901ZM66.4735 21.2933C65.4484 22.1902 64.1672 22.959 62.8859 23.5996C62.2452 23.8559 60.1952 24.7528 56.4795 26.2903V18.8589C56.7357 18.8589 57.1201 18.7307 57.3764 18.7307C57.5045 18.7307 57.5045 18.7307 57.7608 18.7307C58.4014 18.6026 59.1702 18.6026 59.8108 18.6026L68.2673 19.7558C67.6266 20.2683 67.1141 20.7808 66.4735 21.2933Z" fill="#E4032E"/>
<path d="M163.979 22.3182C163.979 23.8557 163.21 25.3932 161.929 26.8026C161.801 26.9308 161.545 27.187 161.417 27.3152C161.289 27.4433 161.032 27.5714 160.904 27.6995C160.007 28.4683 158.854 29.109 157.573 29.6215C156.035 30.2621 154.754 30.7746 153.601 31.159C152.448 31.5434 151.551 31.7996 150.654 31.9278C150.141 32.0559 149.501 32.0559 148.732 32.184C147.963 32.184 147.194 32.3122 146.169 32.3122C145.529 32.3122 144.76 32.3122 143.991 32.184C143.222 32.0559 142.454 31.9278 141.685 31.7996H141.429L141.172 31.5434C141.172 31.5434 141.172 31.5434 141.044 31.4153C140.404 31.2871 139.763 30.9028 139.122 30.5184C138.354 30.134 137.713 29.4933 137.072 28.8527C136.432 28.0839 136.047 27.4433 135.663 26.6745C135.279 25.9058 135.15 25.137 135.15 24.3682C135.15 23.5994 135.407 22.8307 136.047 21.9338C136.175 21.8057 136.304 21.6775 136.304 21.5494C136.816 20.9088 137.457 20.14 138.482 19.2431C139.379 18.6024 140.276 17.8337 141.301 17.3212C142.326 16.6805 143.607 16.168 144.888 15.6555C145.273 15.5274 145.529 15.3992 145.913 15.2711C146.298 15.143 146.554 15.0149 146.938 15.0149C148.604 14.5023 150.141 14.2461 151.551 14.2461C151.679 14.2461 152.191 14.3742 153.088 14.6305C153.473 14.7586 153.857 14.8867 154.241 14.8867L154.498 15.0149C156.548 15.3992 158.47 16.0399 160.264 17.3212C162.698 18.4743 163.979 20.2681 163.979 22.3182ZM159.879 22.5744C159.879 21.9338 159.495 21.0369 158.854 20.2681C158.47 19.7556 158.085 19.3712 157.829 19.2431C157.573 19.115 157.188 18.9868 156.932 18.9868C156.804 18.9868 156.548 19.115 156.292 19.2431L155.779 19.6275L155.267 19.3712C155.138 19.3712 155.138 19.2431 155.01 19.2431C154.882 19.2431 154.882 19.115 154.882 19.115C154.626 18.8587 154.498 18.6024 154.498 18.3462C154.241 18.2181 153.857 18.0899 153.345 17.9618H153.216C153.088 17.9618 152.96 17.8337 152.832 17.8337C152.704 17.8337 152.576 17.8337 152.448 17.7056C151.935 17.5774 151.423 17.5774 151.166 17.5774C150.654 17.5774 150.013 17.5774 149.373 17.7056C148.732 17.8337 147.963 17.9618 147.066 18.2181C146.81 18.3462 146.682 18.3462 146.426 18.4743L145.785 18.7306C144.76 19.115 143.863 19.4993 143.222 19.7556C142.71 20.14 142.197 20.3962 141.685 20.7806C141.172 21.165 140.66 21.6775 140.276 22.19C140.019 22.4463 139.763 22.7025 139.635 22.9588C139.507 23.2151 139.379 23.3432 139.25 23.5994C139.122 23.9838 138.994 24.2401 138.994 24.6245C138.994 24.8807 139.25 25.3932 139.763 26.0339C139.763 26.0339 139.891 26.162 140.019 26.2901C140.147 26.4183 140.147 26.4183 140.276 26.5464C140.66 26.9308 141.044 27.3152 141.557 27.5714H141.685C142.069 27.8277 142.71 28.0839 143.607 28.3402C143.735 28.3402 143.863 28.3402 143.991 28.4683C144.119 28.4683 144.247 28.4683 144.376 28.4683C145.016 28.5964 145.657 28.5964 146.169 28.5964C147.194 28.5964 148.348 28.4683 149.501 28.3402C149.629 28.3402 149.885 28.2121 150.141 28.2121C151.295 27.9558 152.448 27.6995 153.729 27.3152C155.907 26.6745 157.445 26.0339 158.47 25.137C159.495 24.2401 159.879 23.4713 159.879 22.5744Z" fill="#E4032E"/>
<path fill-rule="evenodd" clip-rule="evenodd" d="M169.36 10.0178C167.054 10.0178 165.132 11.9397 165.132 14.2461C165.132 16.5524 167.054 18.4743 169.36 18.4743C171.666 18.4743 173.588 16.5524 173.588 14.2461C173.46 11.9397 171.666 10.0178 169.36 10.0178ZM169.36 17.8336C167.438 17.8336 165.901 16.2961 165.901 14.2461C165.901 12.3241 167.438 10.6585 169.36 10.6585C171.282 10.6585 172.82 12.196 172.82 14.2461C172.82 16.168 171.282 17.8336 169.36 17.8336Z" fill="#E4032E"/>
<path fill-rule="evenodd" clip-rule="evenodd" d="M170.77 15.6557C170.514 15.2713 170.257 14.8869 170.001 14.7588C169.873 14.6306 169.873 14.6306 169.745 14.5025C170.514 14.5025 170.898 13.8619 170.898 13.2212C170.898 12.7087 170.642 12.3243 170.129 12.0681C169.873 11.9399 169.617 11.9399 168.976 11.9399H167.438V16.4244H168.207V14.7588H168.592C168.848 14.7588 169.104 14.7588 169.232 14.8869C169.489 15.1431 169.745 15.3994 170.001 16.04L170.385 16.8088H171.154L170.77 15.6557ZM169.104 14.1181H168.207V12.7087H168.976C169.489 12.7087 170.129 12.7087 170.129 13.4775C170.129 13.7337 170.001 13.8619 169.873 13.99C169.873 13.99 169.489 14.1181 169.104 14.1181Z" fill="#E4032E"/>
</svg>
