<svg width="62" height="68" viewBox="0 0 62 68" fill="none" xmlns="http://www.w3.org/2000/svg">
<g opacity="0.20173" filter="url(#filter0_f)">
<path fill-rule="evenodd" clip-rule="evenodd" d="M31 66C32.9302 66 36.2895 61.5645 38.7592 61.1898C51.0079 59.3317 60 53.1821 60 45.8824C60 37.1108 47.0163 30 31 30C14.9837 30 2 37.1108 2 45.8824C2 53.1885 11.0077 59.3423 23.2728 61.1947C25.7329 61.5662 29.0698 66 31 66Z" fill="url(#paint0_linear)"/>
</g>
<g filter="url(#filter1_d)">
<path d="M31 66.4802C32.9302 66.4802 36.2895 58.4125 38.7592 57.7311C51.0079 54.3512 60 43.1658 60 29.8883C60 13.9338 47.0163 1 31 1C14.9837 1 2 13.9338 2 29.8883C2 43.1774 11.0077 54.3706 23.2728 57.7399C25.7329 58.4157 29.0698 66.4802 31 66.4802Z" fill="white"/>
</g>
<path d="M31 54C44.2548 54 55 43.2548 55 30C55 16.7452 44.2548 6 31 6C17.7452 6 7 16.7452 7 30C7 43.2548 17.7452 54 31 54Z" fill="#D40028"/>
<mask id="mask0" mask-type="alpha" maskUnits="userSpaceOnUse" x="19" y="16" width="25" height="30">
<rect x="19" y="16" width="25" height="30" fill="#C4C4C4"/>
</mask>
<g mask="url(#mask0)">
<mask id="mask1" mask-type="alpha" maskUnits="userSpaceOnUse" x="19" y="16" width="173" height="32">
<path d="M98.6957 44.9249C98.6957 45.9499 98.3113 45.9499 97.4144 45.9499H97.1582L96.9019 45.8218C96.6456 45.6937 96.3894 45.5656 96.1331 45.3093L96.005 45.1812L95.8769 44.9249C95.8769 44.9249 95.8769 44.9249 95.8769 44.7968C95.7487 44.4124 95.6206 43.8999 95.4925 43.5155C95.3644 43.003 95.2362 42.6186 95.2362 42.3624C94.7237 40.3123 94.5956 38.6466 94.5956 37.4935C94.5956 37.1091 94.4675 36.7247 94.4675 36.2122C94.3393 35.4434 94.2112 34.5465 94.2112 33.7778V24.1682H96.005C97.2863 24.1682 98.0551 24.9369 98.1832 26.6026V26.7307V31.2152C98.0551 32.6246 98.0551 33.1371 98.0551 33.1371V38.1341C98.1832 39.6717 98.3113 41.978 98.6957 44.9249ZM43.4725 19.043C43.4725 19.4274 43.0881 20.1962 42.1912 21.99C41.2943 23.6557 40.7818 24.5526 40.3974 25.1932C40.2693 25.3213 40.3974 25.3213 40.3974 25.1932L40.1411 25.7057C39.6286 26.4745 39.1161 27.4995 38.3473 28.9089C38.2192 29.4214 37.963 30.0621 37.5786 30.7027C37.1942 31.3433 36.8098 32.1121 36.4254 32.8809L36.1692 33.3934C36.041 33.6497 35.9129 33.7778 35.9129 33.9059C35.4004 34.8028 34.8879 35.6997 34.2472 36.4685C33.991 37.1091 33.6066 37.8779 33.2222 38.7748C32.966 39.2873 32.7097 39.7998 32.7097 39.9279V40.0561C32.0691 41.0811 31.4284 41.5936 30.6597 41.5936C30.5315 41.5936 30.5315 41.5936 30.4034 41.5936C30.2753 41.5936 30.1471 41.4655 30.019 41.3373C29.8909 41.3373 29.8909 41.2092 29.7628 41.0811C29.2502 40.5686 28.0971 39.4154 26.4314 37.6216C23.997 35.1872 22.2032 33.1371 21.05 31.4715C19.7688 29.8058 19 28.3964 19 27.6276C19 27.3714 19 27.1151 19.2563 26.8589C19.3844 26.7307 19.5125 26.6026 19.6406 26.4745C19.8969 26.2182 20.1532 26.0901 20.5375 26.0901H22.2032L22.4595 26.6026C22.7157 27.1151 23.2282 28.012 23.8689 28.9089L24.8939 30.5746C25.022 30.8308 25.1502 30.959 25.4064 31.2152C25.022 31.3433 25.2783 31.5996 25.5345 31.984C26.5596 33.1371 27.969 34.5465 29.8909 36.3403L41.5506 18.018L42.1912 16.993L42.96 17.7618C43.4725 18.1461 43.4725 18.5305 43.4725 19.043ZM94.2112 18.6587C94.2112 18.018 94.4675 17.3774 94.8519 16.993C95.2362 16.4805 95.8769 16.2242 96.5175 16.2242C97.1582 16.2242 97.7988 16.4805 98.1832 16.993C98.5676 17.3774 98.952 18.018 98.952 18.6587C98.952 19.2993 98.6957 19.9399 98.1832 20.3243C97.7988 20.8368 97.2863 21.0931 96.6456 21.0931C96.005 21.0931 95.3644 20.8368 94.98 20.4525C94.4675 19.9399 94.2112 19.4274 94.2112 18.6587ZM64.7417 41.4655C64.7417 41.3373 64.7417 41.3373 64.7417 41.3373V41.0811L64.6136 40.8248C63.5886 39.4154 62.5636 37.8779 61.4104 36.3403C60.3854 34.9309 59.3604 33.5215 58.2072 31.8559C56.9259 30.0621 55.7728 28.3964 54.8759 26.987C53.8508 25.4494 53.0821 24.1682 52.3133 23.015L52.1852 22.8869L51.9289 22.5025C51.4164 22.2462 50.9039 21.99 50.6476 21.99C50.2633 21.99 50.007 21.99 49.6226 22.1181C49.2382 22.2462 48.982 22.6306 48.7257 23.015C48.4695 23.9119 48.2132 24.6807 47.957 25.3213C47.7007 25.962 47.5726 26.4745 47.4444 26.8589C46.8038 28.5245 46.2913 29.8058 45.7788 30.8308C45.3944 31.7277 45.01 32.4965 44.6256 33.009C44.3694 33.2653 44.2412 33.3934 44.1131 33.3934L43.7287 33.5215L43.6006 33.9059C43.3443 34.8028 43.4725 34.1622 43.3443 34.5465C42.96 35.6997 42.7037 36.3403 42.5756 36.5966V36.7247C41.6787 38.6466 41.1662 39.7998 41.1662 39.7998L41.038 40.0561V40.3123C41.038 40.6967 41.1662 41.0811 41.2943 41.3373L41.4224 41.4655L41.6787 41.5936C41.8068 41.7217 42.0631 41.978 42.3193 42.1061C42.5756 42.2342 42.96 42.3624 43.3443 42.3624C44.2412 42.3624 45.2663 41.0811 46.035 38.6466C46.5475 37.1091 46.9319 36.3403 47.1882 36.3403H56.9259L63.2042 42.6186L64.8699 44.2843V41.978C64.7417 41.7217 64.7417 41.5936 64.7417 41.4655ZM48.8539 32.7528L50.9039 27.7558L54.8759 33.2653L48.8539 32.7528ZM125.987 41.4655C125.987 41.3373 125.987 41.3373 125.987 41.3373V41.0811L125.859 40.8248C124.834 39.4154 123.809 37.8779 122.656 36.3403C121.631 34.9309 120.606 33.5215 119.452 31.8559C118.171 30.0621 117.018 28.3964 116.121 26.987C115.096 25.4494 114.327 24.1682 113.559 23.015L113.43 22.6306L113.302 22.5025C112.79 22.2462 112.277 21.99 112.021 21.99C111.637 21.99 111.38 21.99 110.996 22.1181C110.612 22.2462 110.355 22.6306 110.099 23.015C109.843 23.9119 109.587 24.6807 109.33 25.3213C109.074 25.962 108.946 26.4745 108.818 26.8589C108.177 28.5245 107.665 29.8058 107.152 30.8308C106.768 31.7277 106.383 32.4965 105.999 33.009C105.743 33.2653 105.615 33.3934 105.486 33.3934L105.102 33.5215L104.974 33.9059C104.718 34.8028 104.846 34.1622 104.718 34.5465C104.333 35.6997 104.077 36.3403 103.949 36.5966V36.7247C103.052 38.6466 102.54 39.7998 102.54 39.7998L102.411 40.0561V40.3123C102.411 40.6967 102.54 41.0811 102.668 41.3373L102.796 41.4655L102.924 41.5936C103.18 41.7217 103.308 41.978 103.565 42.1061C103.821 42.2342 104.205 42.3624 104.59 42.3624C105.486 42.3624 106.383 41.0811 107.28 38.6466C107.793 37.1091 108.177 36.3403 108.433 36.3403H118.171L124.449 42.6186L126.115 44.2843V41.978C126.115 41.8498 125.987 41.5936 125.987 41.4655ZM110.099 32.8809L112.149 27.8839L116.121 33.3934L110.099 32.8809ZM149.819 18.5305V37.4935C149.819 38.006 149.691 38.6466 149.306 39.2873C149.306 39.4154 149.178 39.4154 149.178 39.5435L149.05 39.6717C148.666 40.0561 148.281 40.1842 147.769 40.1842C147.513 40.1842 147.128 40.0561 146.487 39.7998L146.359 39.6717L146.231 39.5435C146.231 39.5435 146.231 39.5435 146.103 39.4154L145.975 39.2873C145.847 39.1592 145.719 39.1592 145.719 39.031C144.95 38.7748 144.181 38.2623 143.156 37.7498C142.259 37.1091 141.234 36.4685 139.953 35.5716C138.928 34.8028 138.031 34.1622 137.134 33.5215C135.725 32.4965 134.315 31.3433 132.778 30.3183C132.009 29.8058 131.368 29.4214 130.728 28.9089L130.984 34.8028C130.984 34.9309 130.984 35.1872 131.112 35.4434V35.5716C131.112 35.8278 131.24 36.0841 131.368 36.4685C131.625 37.2372 131.881 37.8779 132.009 38.006L132.265 38.2623L131.881 40.5686C131.496 40.6967 131.112 40.6967 130.728 40.6967C130.087 40.6967 129.575 40.4404 129.062 39.7998C128.806 39.5435 128.678 39.2873 128.55 39.031C128.421 38.7748 128.293 38.5185 128.165 38.2623C128.165 38.1341 128.165 38.006 128.037 37.6216C128.037 37.3654 127.909 37.1091 127.909 36.8529C127.653 35.5716 127.525 33.9059 127.396 32.2402C127.396 31.3433 127.268 30.4464 127.268 29.4214C127.268 28.9089 127.012 26.7307 127.012 26.6026C126.884 26.6026 126.628 25.3213 126.628 25.1932C126.628 24.8088 126.756 24.4244 127.14 24.1682L127.268 24.04C127.525 23.7838 127.909 23.5275 128.55 23.2713H128.806L129.19 23.5275L145.591 35.1872L147.897 18.5305C147.897 17.8899 147.897 17.5055 147.897 16.8649C147.897 16.6086 148.025 16.2242 148.153 16.0961C149.178 15.8398 149.563 16.0961 149.691 16.8649L149.819 18.5305ZM91.6486 26.0901V25.962C91.5205 25.7057 91.3924 25.4494 91.2643 25.1932L91.008 24.9369L90.6236 24.8088C89.5986 24.5526 88.0611 24.1682 86.1391 23.9119C85.3704 23.6557 84.8579 23.6557 84.4735 23.5275C83.8328 23.3994 83.3203 23.2713 83.0641 23.2713L74.7357 22.8869C71.7888 22.8869 70.2513 24.1682 70.2513 26.6026C70.2513 26.7307 70.2513 26.987 70.3794 27.2432C70.3794 27.4995 70.5075 27.7558 70.5075 28.012C70.5075 28.2683 70.6356 28.6527 70.6356 28.9089C70.6356 29.037 70.6356 29.1652 70.6356 29.1652V33.3934C70.6356 33.9059 70.6356 34.4184 70.7638 34.9309C70.7638 35.1872 70.8919 35.4434 70.8919 35.6997C69.0981 36.3403 67.6887 36.7247 66.6637 37.1091L65.6386 37.4935L63.7167 38.1341L65.3824 39.2873C65.3824 39.2873 65.5105 39.4154 65.6386 39.4154C65.7668 39.4154 65.7668 39.5435 65.8949 39.5435C66.2793 39.6717 66.7918 39.9279 67.4324 39.9279C67.8168 39.9279 68.4575 39.7998 69.2262 39.6717C69.7387 39.5435 70.5075 39.4154 71.2763 39.1592C71.2763 39.2873 71.4044 39.5435 71.4044 39.6717C71.5325 40.4404 71.7888 41.4655 72.045 42.3624C72.045 42.6186 72.1732 42.8749 72.1732 43.1311C72.1732 43.3874 72.3013 43.6436 72.3013 43.8999C72.6857 45.1812 73.1982 46.3343 73.7107 47.1031L74.3513 48L75.1201 47.2312C75.5045 46.8468 75.7608 46.3343 75.7608 45.6937V45.5656L74.7357 37.7498C74.7357 37.7498 74.8639 37.7498 74.992 37.7498C75.3764 37.6216 75.8889 37.4935 76.2733 37.3654C76.5295 37.2372 76.7858 37.2372 76.9139 37.1091C77.2983 36.981 77.6827 36.8529 78.1952 36.5966C78.5796 36.4685 78.964 36.3403 79.3484 36.2122C81.1421 35.4434 82.5516 34.8028 83.3203 34.2903C83.961 33.9059 84.6016 33.5215 84.986 33.2653C85.2422 33.009 85.6266 32.8809 85.7548 32.7528C86.2673 32.4965 86.7798 32.2402 87.2923 31.8559C87.8048 31.4715 88.3173 31.2152 88.8298 30.7027C89.0861 30.5746 89.3423 30.3183 89.4705 30.1902C89.7267 30.0621 89.983 29.8058 90.1111 29.6777C91.2643 28.6527 91.7768 27.6276 91.7768 26.8589C91.7768 26.6026 91.6486 26.3463 91.6486 26.0901ZM84.4735 29.2933C83.4484 30.1902 82.1672 30.959 80.8859 31.5996C80.2452 31.8559 78.1952 32.7528 74.4795 34.2903V26.8589C74.7357 26.8589 75.1201 26.7307 75.3764 26.7307C75.5045 26.7307 75.5045 26.7307 75.7608 26.7307C76.4014 26.6026 77.1702 26.6026 77.8108 26.6026L86.2673 27.7558C85.6266 28.2683 85.1141 28.7808 84.4735 29.2933Z" fill="#E4032E"/>
</mask>
<g mask="url(#mask1)">
<path fill-rule="evenodd" clip-rule="evenodd" d="M39 16H18V44H39V30H44V16H39Z" fill="white"/>
</g>
</g>
<defs>
<filter id="filter0_f" x="0" y="28" width="62" height="40" filterUnits="userSpaceOnUse" color-interpolation-filters="sRGB">
<feFlood flood-opacity="0" result="BackgroundImageFix"/>
<feBlend mode="normal" in="SourceGraphic" in2="BackgroundImageFix" result="shape"/>
<feGaussianBlur stdDeviation="1" result="effect1_foregroundBlur"/>
</filter>
<filter id="filter1_d" x="1" y="0" width="60" height="67.4802" filterUnits="userSpaceOnUse" color-interpolation-filters="sRGB">
<feFlood flood-opacity="0" result="BackgroundImageFix"/>
<feColorMatrix in="SourceAlpha" type="matrix" values="0 0 0 0 0 0 0 0 0 0 0 0 0 0 0 0 0 0 127 0" result="hardAlpha"/>
<feOffset/>
<feGaussianBlur stdDeviation="0.5"/>
<feColorMatrix type="matrix" values="0 0 0 0 0.172549 0 0 0 0 0.172549 0 0 0 0 0.192157 0 0 0 0.4 0"/>
<feBlend mode="normal" in2="BackgroundImageFix" result="effect1_dropShadow"/>
<feBlend mode="normal" in="SourceGraphic" in2="effect1_dropShadow" result="shape"/>
</filter>
<linearGradient id="paint0_linear" x1="31" y1="66" x2="31" y2="43.444" gradientUnits="userSpaceOnUse">
<stop/>
<stop offset="1" stop-opacity="0"/>
</linearGradient>
</defs>
</svg>
