<svg width="21" height="20" viewBox="0 0 21 20" fill="none" xmlns="http://www.w3.org/2000/svg">
<path d="M20.4496 4.96726L17.2363 0H3.21325L0 4.96614C0 6.07592 0.934498 7.01154 2.04541 7.01154C3.15519 7.01154 4.09081 6.1351 4.09081 4.96614C4.09081 6.07592 5.02531 7.01154 6.13622 7.01154C7.24601 7.01154 8.18163 6.1351 8.18163 4.96614C8.18163 6.07592 9.11613 7.01154 10.227 7.01154C11.3368 7.01154 12.2724 6.1351 12.2724 4.96614C12.2724 6.07592 13.2069 7.01154 14.3179 7.01154C15.4276 7.01154 16.3633 6.1351 16.3633 4.96614C16.3633 6.07592 17.2978 7.01154 18.4087 7.01154C19.5152 7.01154 20.4497 6.1351 20.4497 4.96723L20.4496 4.96726Z" fill="black"/>
<path d="M19.4054 14.3495C18.7623 14.3495 18.1784 14.2323 17.6525 13.9989L16.6525 13.4392H3.79726V8.9989C3.27139 9.23225 2.68747 9.34948 2.04437 9.34948C1.86908 9.34948 1.63574 9.34948 1.46045 9.29142V15.776H18L19.9893 14.2903C19.814 14.3495 19.5807 14.3495 19.4054 14.3495Z" fill="black"/>
<path d="M19.5856 9.33622L19.5855 9.33608C18.7307 8.16802 17.4165 7.5 16 7.5C14.5835 7.5 13.2693 8.16802 12.4145 9.33608L12.4144 9.33622C11.1952 11.0035 11.1952 13.3088 12.4144 14.9761L12.4155 14.9775L14.7924 18.2038C15.3918 19.0175 16.6082 19.0175 17.2077 18.2038L19.5845 14.9775L19.5856 14.9761C20.8048 13.3088 20.8048 11.0035 19.5856 9.33622ZM16 10.3801C16.8557 10.3801 17.5913 11.1164 17.5913 12.0551C17.5913 12.9938 16.8557 13.7301 16 13.7301C15.1443 13.7301 14.4087 12.9938 14.4087 12.0551C14.4087 11.1164 15.1443 10.3801 16 10.3801Z" fill="black" stroke="white" stroke-miterlimit="10"/>
</svg>
