<svg width="20" height="21" viewBox="0 0 20 21" fill="none" xmlns="http://www.w3.org/2000/svg">
<path d="M9.91736 0.760376C4.44736 0.760376 0 5.20774 0 10.6777C0 16.1477 4.44736 20.5951 9.91736 20.5951C15.3874 20.5951 19.8347 16.1477 19.8347 10.6777C19.8347 5.20774 15.3874 0.760376 9.91736 0.760376ZM9.91736 6.43916C11.6292 6.43916 13.0279 7.83786 13.0279 9.54966C13.0279 11.2615 11.6292 12.6602 9.91736 12.6602C8.20556 12.6602 6.80686 11.2615 6.80686 9.54966C6.80686 7.83778 8.20556 6.43916 9.91736 6.43916ZM4.48891 16.691V16.2318C4.48891 14.9163 5.55405 13.8308 6.88995 13.8308H12.9448C14.2603 13.8308 15.3458 14.8959 15.3458 16.2318V16.691C13.9055 17.9853 12.0052 18.7789 9.91736 18.7789C7.82949 18.7789 5.92912 17.9853 4.48891 16.691Z" fill="#F6F6F6"/>
</svg>
