<svg width="25" height="25" viewBox="0 0 25 25" fill="none" xmlns="http://www.w3.org/2000/svg">
<circle cx="12.6412" cy="12.6413" r="11.6416" stroke="#377B1A" stroke-width="1.05833"/>
<path d="M18.1721 8.18307C19.0725 7.38015 20.0443 6.65911 21.0746 6.03027C10.1587 7.4646 10.9876 16.9032 11.402 19.3914C12.5609 15.0935 14.9072 11.2088 18.172 8.18317L18.1721 8.18307Z" fill="#377B1A"/>
<path d="M21.1398 6.07727C18.8544 7.62461 16.9005 9.61377 15.3935 11.9277C14.5516 13.2204 13.8344 14.5884 13.2524 16.0163C12.7223 17.2921 12.3065 18.6108 12.009 19.9582C14.2541 19.4788 22.4935 16.9635 21.1398 6.0776L21.1398 6.07727Z" fill="#377B1A"/>
<path d="M10.1837 18.399C10.3137 18.6394 10.441 18.8771 10.5605 19.1214C10.5501 16.9478 9.83814 11.4171 2.86255 11.4171C3.23542 11.6198 3.74599 11.8601 4.10071 12.0849V12.0836C6.64584 13.6206 8.74276 15.798 10.1836 18.399L10.1837 18.399Z" fill="#377B1A"/>
<path d="M3.46376 11.7895L2.86353 11.4153C2.86353 18.761 8.49572 19.808 10.1015 19.9577C8.8244 16.5928 6.49615 13.7292 3.46386 11.7895H3.46376Z" fill="#377B1A"/>
</svg>
